<svg version="1.2" xmlns="http://www.w3.org/2000/svg" viewBox="0 0 566 440" width="566" height="440">
	<title>2343432-ai</title>
	<defs>
		<linearGradient id="g1" x2="1" gradientUnits="userSpaceOnUse" gradientTransform="matrix(121.498,52.949,-23.665,54.301,85.465,328.276)">
			<stop offset="0" stop-color="#84a47f"/>
			<stop offset="1" stop-color="#3b3b64"/>
		</linearGradient>
		<linearGradient id="g2" x2="1" gradientUnits="userSpaceOnUse" gradientTransform="matrix(-47.104,123.882,-55.363,-21.05,574.117,188.854)">
			<stop offset="0" stop-color="#84a47f"/>
			<stop offset="1" stop-color="#3b3b64"/>
		</linearGradient>
		<linearGradient id="g3" x2="1" gradientUnits="userSpaceOnUse" gradientTransform="matrix(31.823,-15.395,105.084,217.214,105.727,218.092)">
			<stop offset="0" stop-color="#84a47f"/>
			<stop offset="1" stop-color="#3b3b64"/>
		</linearGradient>
		<linearGradient id="g4" x2="1" gradientUnits="userSpaceOnUse" gradientTransform="matrix(30.511,-14.76,17.239,35.635,130.99,253.696)">
			<stop offset="0" stop-color="#84a47f"/>
			<stop offset="1" stop-color="#3b3b64"/>
		</linearGradient>
		<linearGradient id="g5" x2="1" gradientUnits="userSpaceOnUse" gradientTransform="matrix(27.903,-13.499,9.43,19.493,145.268,284.349)">
			<stop offset="0" stop-color="#84a47f"/>
			<stop offset="1" stop-color="#3b3b64"/>
		</linearGradient>
		<linearGradient id="g6" x2="1" gradientUnits="userSpaceOnUse" gradientTransform="matrix(21.615,-10.457,13.979,28.896,111.354,274.03)">
			<stop offset="0" stop-color="#84a47f"/>
			<stop offset="1" stop-color="#3b3b64"/>
		</linearGradient>
		<linearGradient id="g7" x2="1" gradientUnits="userSpaceOnUse" gradientTransform="matrix(29.123,-14.089,13.135,27.152,112.415,300.705)">
			<stop offset="0" stop-color="#84a47f"/>
			<stop offset="1" stop-color="#3b3b64"/>
		</linearGradient>
		<linearGradient id="g8" x2="1" gradientUnits="userSpaceOnUse" gradientTransform="matrix(52.312,-25.308,25.632,52.983,116.133,324.746)">
			<stop offset="0" stop-color="#84a47f"/>
			<stop offset="1" stop-color="#3b3b64"/>
		</linearGradient>
		<linearGradient id="g9" x2="1" gradientUnits="userSpaceOnUse" gradientTransform="matrix(51.385,-24.859,10.919,22.569,150.02,373.339)">
			<stop offset="0" stop-color="#84a47f"/>
			<stop offset="1" stop-color="#3b3b64"/>
		</linearGradient>
		<linearGradient id="g10" x2="1" gradientUnits="userSpaceOnUse" gradientTransform="matrix(18.004,-8.71,15.413,31.86,155.824,299.134)">
			<stop offset="0" stop-color="#84a47f"/>
			<stop offset="1" stop-color="#3b3b64"/>
		</linearGradient>
		<linearGradient id="g11" x2="1" gradientUnits="userSpaceOnUse" gradientTransform="matrix(15.353,-7.427,17.05,35.243,173.16,311.921)">
			<stop offset="0" stop-color="#84a47f"/>
			<stop offset="1" stop-color="#3b3b64"/>
		</linearGradient>
		<linearGradient id="g12" x2="1" gradientUnits="userSpaceOnUse" gradientTransform="matrix(15.833,-7.66,18.761,38.779,191.359,323.418)">
			<stop offset="0" stop-color="#84a47f"/>
			<stop offset="1" stop-color="#3b3b64"/>
		</linearGradient>
		<linearGradient id="g13" x2="1" gradientUnits="userSpaceOnUse" gradientTransform="matrix(18.812,-9.101,18.683,38.618,203.791,346.048)">
			<stop offset="0" stop-color="#84a47f"/>
			<stop offset="1" stop-color="#3b3b64"/>
		</linearGradient>
		<linearGradient id="g14" x2="1" gradientUnits="userSpaceOnUse" gradientTransform="matrix(25.612,-12.391,13.297,27.485,213.864,378.303)">
			<stop offset="0" stop-color="#84a47f"/>
			<stop offset="1" stop-color="#3b3b64"/>
		</linearGradient>
		<linearGradient id="g15" x2="1" gradientUnits="userSpaceOnUse" gradientTransform="matrix(43.141,-20.871,9.955,20.578,169.862,391.066)">
			<stop offset="0" stop-color="#84a47f"/>
			<stop offset="1" stop-color="#3b3b64"/>
		</linearGradient>
		<linearGradient id="g16" x2="1" gradientUnits="userSpaceOnUse" gradientTransform="matrix(30.611,-14.809,7.818,16.16,189.149,407.027)">
			<stop offset="0" stop-color="#84a47f"/>
			<stop offset="1" stop-color="#3b3b64"/>
		</linearGradient>
		<linearGradient id="g17" x2="1" gradientUnits="userSpaceOnUse" gradientTransform="matrix(18.783,-9.087,11.652,24.085,109.483,255.141)">
			<stop offset="0" stop-color="#84a47f"/>
			<stop offset="1" stop-color="#3b3b64"/>
		</linearGradient>
		<linearGradient id="g18" x2="1" gradientUnits="userSpaceOnUse" gradientTransform="matrix(40.035,0,0,254.233,247.031,87.589)">
			<stop offset="0" stop-color="#84a47f"/>
			<stop offset="1" stop-color="#3b3b64"/>
		</linearGradient>
		<linearGradient id="g19" x2="1" gradientUnits="userSpaceOnUse" gradientTransform="matrix(30.974,0,0,40.462,249.999,128.578)">
			<stop offset="0" stop-color="#84a47f"/>
			<stop offset="1" stop-color="#3b3b64"/>
		</linearGradient>
		<linearGradient id="g20" x2="1" gradientUnits="userSpaceOnUse" gradientTransform="matrix(29.277,0,0,22.051,251.308,162.147)">
			<stop offset="0" stop-color="#84a47f"/>
			<stop offset="1" stop-color="#3b3b64"/>
		</linearGradient>
		<linearGradient id="g21" x2="1" gradientUnits="userSpaceOnUse" gradientTransform="matrix(24.285,0,0,30.149,283.858,141.538)">
			<stop offset="0" stop-color="#84a47f"/>
			<stop offset="1" stop-color="#3b3b64"/>
		</linearGradient>
		<linearGradient id="g22" x2="1" gradientUnits="userSpaceOnUse" gradientTransform="matrix(32.755,0,0,28.309,284.453,165.533)">
			<stop offset="0" stop-color="#84a47f"/>
			<stop offset="1" stop-color="#3b3b64"/>
		</linearGradient>
		<linearGradient id="g23" x2="1" gradientUnits="userSpaceOnUse" gradientTransform="matrix(59.633,0,0,55.157,263.204,188.807)">
			<stop offset="0" stop-color="#84a47f"/>
			<stop offset="1" stop-color="#3b3b64"/>
		</linearGradient>
		<linearGradient id="g24" x2="1" gradientUnits="userSpaceOnUse" gradientTransform="matrix(55.582,0,0,24.18,254.051,244.049)">
			<stop offset="0" stop-color="#84a47f"/>
			<stop offset="1" stop-color="#3b3b64"/>
		</linearGradient>
		<linearGradient id="g25" x2="1" gradientUnits="userSpaceOnUse" gradientTransform="matrix(19.308,0,0,35.105,257.238,179.855)">
			<stop offset="0" stop-color="#84a47f"/>
			<stop offset="1" stop-color="#3b3b64"/>
		</linearGradient>
		<linearGradient id="g26" x2="1" gradientUnits="userSpaceOnUse" gradientTransform="matrix(16.79,0,0,38.323,248.664,198.169)">
			<stop offset="0" stop-color="#84a47f"/>
			<stop offset="1" stop-color="#3b3b64"/>
		</linearGradient>
		<linearGradient id="g27" x2="1" gradientUnits="userSpaceOnUse" gradientTransform="matrix(15.917,0,0,42.597,236.251,215.118)">
			<stop offset="0" stop-color="#84a47f"/>
			<stop offset="1" stop-color="#3b3b64"/>
		</linearGradient>
		<linearGradient id="g28" x2="1" gradientUnits="userSpaceOnUse" gradientTransform="matrix(19.181,0,0,42.767,230.362,239.913)">
			<stop offset="0" stop-color="#84a47f"/>
			<stop offset="1" stop-color="#3b3b64"/>
		</linearGradient>
		<linearGradient id="g29" x2="1" gradientUnits="userSpaceOnUse" gradientTransform="matrix(26.211,0,0,31.137,226.866,272.289)">
			<stop offset="0" stop-color="#84a47f"/>
			<stop offset="1" stop-color="#3b3b64"/>
		</linearGradient>
		<linearGradient id="g30" x2="1" gradientUnits="userSpaceOnUse" gradientTransform="matrix(47.152,0,0,23.014,251.553,266.894)">
			<stop offset="0" stop-color="#84a47f"/>
			<stop offset="1" stop-color="#3b3b64"/>
		</linearGradient>
		<linearGradient id="g31" x2="1" gradientUnits="userSpaceOnUse" gradientTransform="matrix(33.369,0,0,17.561,254.152,289.112)">
			<stop offset="0" stop-color="#84a47f"/>
			<stop offset="1" stop-color="#3b3b64"/>
		</linearGradient>
		<linearGradient id="g32" x2="1" gradientUnits="userSpaceOnUse" gradientTransform="matrix(21.249,0,0,25.166,281.466,123.797)">
			<stop offset="0" stop-color="#84a47f"/>
			<stop offset="1" stop-color="#3b3b64"/>
		</linearGradient>
		<linearGradient id="g33" x2="1" gradientUnits="userSpaceOnUse" gradientTransform="matrix(-73.686,103.272,-65.649,-46.842,274.656,296.57)">
			<stop offset="0" stop-color="#84a47f"/>
			<stop offset="1" stop-color="#3b3b64"/>
		</linearGradient>
		<linearGradient id="g34" x2="1" gradientUnits="userSpaceOnUse" gradientTransform="matrix(-56.954,119.673,-53.482,-25.453,221.014,292.272)">
			<stop offset="0" stop-color="#84a47f"/>
			<stop offset="1" stop-color="#3b3b64"/>
		</linearGradient>
		<linearGradient id="g35" x2="1" gradientUnits="userSpaceOnUse" gradientTransform="matrix(102.104,-49.396,49.16,101.617,41.509,380.414)">
			<stop offset="0" stop-color="#84a47f"/>
			<stop offset="1" stop-color="#3b3b64"/>
		</linearGradient>
		<linearGradient id="g36" x2="1" gradientUnits="userSpaceOnUse" gradientTransform="matrix(107.769,32.167,-10.047,33.661,62.875,393.631)">
			<stop offset="0" stop-color="#84a47f"/>
			<stop offset="1" stop-color="#3b3b64"/>
		</linearGradient>
		<linearGradient id="g37" x2="1" gradientUnits="userSpaceOnUse" gradientTransform="matrix(-28.419,108.817,-33.985,-8.876,519.703,142.166)">
			<stop offset="0" stop-color="#84a47f"/>
			<stop offset="1" stop-color="#3b3b64"/>
		</linearGradient>
		<linearGradient id="g38" x2="1" gradientUnits="userSpaceOnUse" gradientTransform="matrix(-4.876,40.535,-40.669,-4.892,332.434,126.353)">
			<stop offset="0" stop-color="#f7e2bb"/>
			<stop offset="1" stop-color="#d2b795"/>
		</linearGradient>
		<linearGradient id="g39" x2="1" gradientUnits="userSpaceOnUse" gradientTransform="matrix(-40.54,0,0,-34.13,505.926,198.834)">
			<stop offset="0" stop-color="#f7e2bb"/>
			<stop offset="1" stop-color="#d2b795"/>
		</linearGradient>
		<linearGradient id="g40" x2="1" gradientUnits="userSpaceOnUse" gradientTransform="matrix(-7.314,23.77,-9.503,-2.924,497.801,166.135)">
			<stop offset="0" stop-color="#f7e2bb"/>
			<stop offset="1" stop-color="#d2b795"/>
		</linearGradient>
		<linearGradient id="g41" x2="1" gradientUnits="userSpaceOnUse" gradientTransform="matrix(25.589,185.186,-140.333,19.391,639.897,200.879)">
			<stop offset="0" stop-color="#4b5da5"/>
			<stop offset="1" stop-color="#202853"/>
		</linearGradient>
		<linearGradient id="g42" x2="1" gradientUnits="userSpaceOnUse" gradientTransform="matrix(147.529,0,0,89.965,424.796,238.351)">
			<stop offset="0" stop-color="#4b5da5"/>
			<stop offset="1" stop-color="#202853"/>
		</linearGradient>
		<linearGradient id="g43" x2="1" gradientUnits="userSpaceOnUse" gradientTransform="matrix(29.313,0,0,19.405,286.533,201.94)">
			<stop offset="0" stop-color="#f7e2bb"/>
			<stop offset="1" stop-color="#d2b795"/>
		</linearGradient>
		<linearGradient id="g44" x2="1" gradientUnits="userSpaceOnUse" gradientTransform="matrix(3.41,19.508,-6.635,1.16,288.673,161.873)">
			<stop offset="0" stop-color="#f7e2bb"/>
			<stop offset="1" stop-color="#d2b795"/>
		</linearGradient>
		<linearGradient id="g45" x2="1" gradientUnits="userSpaceOnUse" gradientTransform="matrix(13.963,0,0,16.103,294.12,237.356)">
			<stop offset="0" stop-color="#d25c5c"/>
			<stop offset="1" stop-color="#743131"/>
		</linearGradient>
		<linearGradient id="g46" x2="1" gradientUnits="userSpaceOnUse" gradientTransform="matrix(-10.615,88.24,-60.408,-7.267,382.119,222.157)">
			<stop offset="0" stop-color="#d25c5c"/>
			<stop offset="1" stop-color="#743131"/>
		</linearGradient>
		<linearGradient id="g47" x2="1" gradientUnits="userSpaceOnUse" gradientTransform="matrix(52.612,0,0,33.75,199.428,285.027)">
			<stop offset="0" stop-color="#f7e2bb"/>
			<stop offset="1" stop-color="#d2b795"/>
		</linearGradient>
		<linearGradient id="g48" x2="1" gradientUnits="userSpaceOnUse" gradientTransform="matrix(8.725,0,0,18.172,176.109,247.408)">
			<stop offset="0" stop-color="#f7e2bb"/>
			<stop offset="1" stop-color="#d2b795"/>
		</linearGradient>
		<linearGradient id="g49" x2="1" gradientUnits="userSpaceOnUse" gradientTransform="matrix(15.702,0,0,63.335,232.125,330.572)">
			<stop offset="0" stop-color="#f7e2bb"/>
			<stop offset="1" stop-color="#d2b795"/>
		</linearGradient>
		<linearGradient id="g50" x2="1" gradientUnits="userSpaceOnUse" gradientTransform="matrix(26.206,0,0,116.228,273.079,313.649)">
			<stop offset="0" stop-color="#92c9c2"/>
			<stop offset="1" stop-color="#658781"/>
		</linearGradient>
		<linearGradient id="g51" x2="1" gradientUnits="userSpaceOnUse" gradientTransform="matrix(65.533,0,0,101.51,171.401,341.759)">
			<stop offset="0" stop-color="#92c9c2"/>
			<stop offset="1" stop-color="#658781"/>
		</linearGradient>
		<linearGradient id="g52" x2="1" gradientUnits="userSpaceOnUse" gradientTransform="matrix(1.073,1.577,-1.318,.897,292.234,439.756)">
			<stop offset="0" stop-color="#3b3b64"/>
			<stop offset="1" stop-color="#312e3c"/>
		</linearGradient>
		<linearGradient id="g53" x2="1" gradientUnits="userSpaceOnUse" gradientTransform="matrix(118.846,174.656,-204.332,139.04,418.837,159.721)">
			<stop offset="0" stop-color="#3b3b64"/>
			<stop offset="1" stop-color="#312e3c"/>
		</linearGradient>
		<linearGradient id="g54" x2="1" gradientUnits="userSpaceOnUse" gradientTransform="matrix(57.79,0,0,46.954,387.595,249.99)">
			<stop offset="0" stop-color="#f7e2bb"/>
			<stop offset="1" stop-color="#d2b795"/>
		</linearGradient>
		<linearGradient id="g55" x2="1" gradientUnits="userSpaceOnUse" gradientTransform="matrix(30.984,0,0,80.726,414.857,293.032)">
			<stop offset="0" stop-color="#f7e2bb"/>
			<stop offset="1" stop-color="#d2b795"/>
		</linearGradient>
		<linearGradient id="g56" x2="1" gradientUnits="userSpaceOnUse" gradientTransform="matrix(9.94,0,0,19.278,371.491,310.71)">
			<stop offset="0" stop-color="#92c9c2"/>
			<stop offset="1" stop-color="#658781"/>
		</linearGradient>
		<linearGradient id="g57" x2="1" gradientUnits="userSpaceOnUse" gradientTransform="matrix(7.333,0,0,21.701,441.159,308.732)">
			<stop offset="0" stop-color="#92c9c2"/>
			<stop offset="1" stop-color="#658781"/>
		</linearGradient>
		<linearGradient id="g58" x2="1" gradientUnits="userSpaceOnUse" gradientTransform="matrix(54.484,0,0,123.551,385.763,301.988)">
			<stop offset="0" stop-color="#92c9c2"/>
			<stop offset="1" stop-color="#658781"/>
		</linearGradient>
		<linearGradient id="g59" x2="1" gradientUnits="userSpaceOnUse" gradientTransform="matrix(58.838,0,0,39.126,184.746,196.048)">
			<stop offset="0" stop-color="#f7e2bb"/>
			<stop offset="1" stop-color="#d2b795"/>
		</linearGradient>
		<linearGradient id="g60" x2="1" gradientUnits="userSpaceOnUse" gradientTransform="matrix(10.295,0,0,23.071,441.408,208.613)">
			<stop offset="0" stop-color="#f7e2bb"/>
			<stop offset="1" stop-color="#d2b795"/>
		</linearGradient>
		<linearGradient id="g61" x2="1" gradientUnits="userSpaceOnUse" gradientTransform="matrix(85.68,0,0,44.805,355.074,175.121)">
			<stop offset="0" stop-color="#f7e2bb"/>
			<stop offset="1" stop-color="#d2b795"/>
		</linearGradient>
		<clipPath clipPathUnits="userSpaceOnUse" id="cp1">
			<path d="m563.57 439.98h-819.14v-511.96h819.14z"/>
		</clipPath>
	</defs>
	<style>
		tspan { white-space:pre } 
		.s0 { fill: #4a5da5 } 
		.t1 { font-size: 6px;fill: #3b3b65;font-weight: 400;font-family: "OpenSans", "Open Sans" } 
		.t2 { font-size: 6px;fill: #3b3b65;font-weight: 800;font-family: "OpenSans-Extrabold", "Open Sans" } 
		.t3 { font-size: 6px;fill: #3b3b65;font-weight: 600;font-style: italic;font-family: "OpenSans-SemiboldItalic", "Open Sans" } 
		.s4 { fill: #f9ada0 } 
		.s5 { fill: url(#g1) } 
		.s6 { fill: url(#g2) } 
		.s7 { fill: url(#g3) } 
		.s8 { fill: url(#g4) } 
		.s9 { fill: url(#g5) } 
		.s10 { fill: url(#g6) } 
		.s11 { fill: url(#g7) } 
		.s12 { fill: url(#g8) } 
		.s13 { fill: url(#g9) } 
		.s14 { fill: url(#g10) } 
		.s15 { fill: url(#g11) } 
		.s16 { fill: url(#g12) } 
		.s17 { fill: url(#g13) } 
		.s18 { fill: url(#g14) } 
		.s19 { fill: url(#g15) } 
		.s20 { fill: url(#g16) } 
		.s21 { fill: url(#g17) } 
		.s22 { fill: url(#g18) } 
		.s23 { fill: url(#g19) } 
		.s24 { fill: url(#g20) } 
		.s25 { fill: url(#g21) } 
		.s26 { fill: url(#g22) } 
		.s27 { fill: url(#g23) } 
		.s28 { fill: url(#g24) } 
		.s29 { fill: url(#g25) } 
		.s30 { fill: url(#g26) } 
		.s31 { fill: url(#g27) } 
		.s32 { fill: url(#g28) } 
		.s33 { fill: url(#g29) } 
		.s34 { fill: url(#g30) } 
		.s35 { fill: url(#g31) } 
		.s36 { fill: url(#g32) } 
		.s37 { fill: url(#g33) } 
		.s38 { fill: url(#g34) } 
		.s39 { fill: url(#g35) } 
		.s40 { fill: url(#g36) } 
		.s41 { fill: url(#g37) } 
		.s42 { fill: #d25b5c } 
		.s43 { fill: #3c3c3d } 
		.s44 { fill: #f7e3bb } 
		.s45 { fill: url(#g38) } 
		.s46 { fill: url(#g39) } 
		.s47 { fill: url(#g40) } 
		.s48 { fill: url(#g41) } 
		.s49 { fill: url(#g42) } 
		.s50 { fill: url(#g43) } 
		.s51 { fill: url(#g44) } 
		.s52 { fill: url(#g45) } 
		.s53 { fill: url(#g46) } 
		.s54 { fill: #92c9c2 } 
		.s55 { fill: url(#g47) } 
		.s56 { fill: url(#g48) } 
		.s57 { fill: url(#g49) } 
		.s58 { fill: url(#g50) } 
		.s59 { fill: url(#g51) } 
		.s60 { fill: #3b3b65 } 
		.s61 { fill: url(#g52) } 
		.s62 { fill: url(#g53) } 
		.s63 { fill: url(#g54) } 
		.s64 { fill: url(#g55) } 
		.s65 { fill: url(#g56) } 
		.s66 { fill: url(#g57) } 
		.s67 { fill: url(#g58) } 
		.s68 { fill: url(#g59) } 
		.s69 { fill: url(#g60) } 
		.s70 { fill: url(#g61) } 
		.s71 { fill: #f8fafb } 
	</style>
	<g id="BACKGROUND">
	</g>
	<g id="OBJECTS">
		<g id="&lt;Group&gt;">
			<g id="&lt;Group&gt;">
				<g id="&lt;Group&gt;">
					<g id="&lt;Group&gt;">
						<g id="&lt;Group&gt;">
						</g>
					</g>
				</g>
			</g>
			<g id="&lt;Group&gt;">
				<g id="&lt;Group&gt;">
				</g>
				<g id="&lt;Group&gt;">
					<path id="&lt;Compound Path&gt;" fill-rule="evenodd" class="s0" d="m524.7-28.1q-0.3 0.3-0.7 0.3c-0.2 0-0.5-0.1-0.7-0.4l-2.9-3c-1 0.5-2 0.8-3.2 0.8-3.6 0-6.5-2.9-6.5-6.5 0-3.6 2.9-6.5 6.5-6.5 3.6 0 6.5 2.9 6.5 6.5 0 1.7-0.7 3.3-1.7 4.4l2.7 3c0.4 0.4 0.4 1 0 1.4zm-7.5-4.3c2.5 0 4.5-2 4.5-4.5 0-2.5-2-4.5-4.5-4.5-2.5 0-4.5 2-4.5 4.5 0 2.5 2 4.5 4.5 4.5z"/>
				</g>
				<g id="&lt;Group&gt;">
					<g id="&lt;Group&gt;">
						<g id="&lt;Group&gt;">
						</g>
					</g>
				</g>
				<g id="&lt;Group&gt;">
					<text id="Home
" style="transform: matrix(2,0,0,2,56,-30.474)" >
						<tspan x="0" y="0" class="t1">Home
</tspan>
					</text>
					<text id="Our Products
" style="transform: matrix(2,0,0,2,117.56,-30.474)" >
						<tspan x="0" y="0" class="t1">Our Products
</tspan>
					</text>
					<text id="About us
" style="transform: matrix(2,0,0,2,217.444,-30.474)" >
						<tspan x="0" y="0" class="t1">About us
</tspan>
					</text>
					<text id="How it works?
" style="transform: matrix(2,0,0,2,292.696,-30.474)" >
						<tspan x="0" y="0" class="t1">How it works?
</tspan>
					</text>
					<text id="Contact us
" style="transform: matrix(2,0,0,2,394.24,-30.474)" >
						<tspan x="0" y="0" class="t1">Contact us
</tspan>
					</text>
					<text id="YourWebsite
" style="transform: matrix(2,0,0,2,-218.613,-27.823)" >
						<tspan x="0" y="0" class="t2">Your</tspan><tspan  y="0" class="t3">Website
</tspan>
					</text>
				</g>
			</g>
			<g id="&lt;Clip Group&gt;">
				<g id="&lt;Group&gt;">
					<g id="&lt;Group&gt;">
						<path id="&lt;Path&gt;" class="s4" d="m498.1 1.2c-3.4-0.1-9.4 0.8-12.5 2.1-8.7 3.8-6.8 15.4-1.3 22.4 5.6 6.9 13.7 13.3 14 21.8 0.4 15.4-23.1 20.9-40.6 19.7-40.4-2.6-79.7-13.6-120.2-14.3-40.4-0.8-97.3 11.9-116.1 43.3-8.3 13.8-9.7 30.2-5.6 45.4 6.5 24.3 19.2 43.1 13 67.4-9.3 36.8-55 49.5-73.4 55.2-34.4 10.7-63.8 31.2-90 53.5-29.8 25.4-58.2 57.1-57.3 93.5 0.2 11.7 8.1 23.2 13.5 33.5h548.3c0-37.4 0-306.4 0-341.3 0-29 0-86.2 0-85.6 0 0-17.6-14.9-71.8-16.6z"/>
					</g>
					<g id="&lt;Group&gt;">
						<path id="&lt;Path&gt;" class="s5" d="m76.9 348c5.5 0.7 10.8 2.8 15.8 4.9 15.1 6.6 29.4 16 41.2 27.4 5.5 5.4 10.7 11.5 14.1 18.5 1.5 3 2.7 6.2 3.3 9.5 0.3 1.6 1.5 13.9 3.6 14.8 7.1 3.2 17.4-2 25.2-2.5 3.2-0.2 6.7-0.5 9.4-2.4 6.1-4.3 4.4-15.3 2.5-21.4-1.5-4.6-4.6-8.9-9.2-10.5-4-1.4-8.6-0.5-12.4-2.4-8.9-4.3-7.4-19.6-16.4-23.6-5.2-2.3-11.3 0.4-16.8-1-6.5-1.6-9.6-8.8-14.5-13.3-12.7-11.5-32.1-7.6-45.8 2z"/>
					</g>
					<g id="&lt;Group&gt;">
						<path id="&lt;Path&gt;" class="s6" d="m554 181.2c-0.5 5.5-2.2 10.9-4.2 16.1-5.8 15.3-14.5 30.1-25.4 42.4-5.1 5.8-10.9 11.2-17.7 15-2.9 1.7-6.1 3-9.4 3.7-1.6 0.4-13.8 2.2-14.6 4.3-2.9 7.2 2.8 17.4 3.7 25.1 0.4 3.2 0.9 6.6 2.9 9.2 4.5 5.9 15.5 3.8 21.5 1.5 4.5-1.6 8.6-5 10-9.6 1.2-4.1 0.1-8.7 1.8-12.6 3.9-9 19.2-8.3 22.8-17.5 2.1-5.3-1-11.3 0.2-16.8 1.3-6.5 8.3-10 12.5-15.1 10.9-13.2 6.1-32.5-4.1-45.7z"/>
					</g>
					<g id="&lt;Group&gt;">
						<g id="&lt;Group&gt;">
							<path id="&lt;Path&gt;" class="s7" d="m218.4 385.6c2.6 6.5 3.7 26.7 1.8 44.2 2.6-0.9 5.2-1.9 7.8-2.8 0-16.6-1.9-38-3.9-43.8-5.1-14.7-13.4-28.7-25.7-38.3-4.4-3.5-9.3-6.4-13.9-9.6-26.4-18.9-42.4-51.7-40.8-84.2 0.4-8.1 1.8-16.5-0.4-24.3-2.3-8.1-8.7-14.3-15.4-19.4l-0.9 1.4c-7.9 12.9-6.9 28.6 0.4 41.9 3.9 7.1 9.8 13.3 12.2 21 1 3.2 1.4 6.6 1.7 10 1.8 17.4 9.1 31.1 20.7 44.3 18.9 21.3 43.2 25.5 56.4 59.6z"/>
						</g>
						<g id="&lt;Group&gt;">
							<path id="&lt;Path&gt;" class="s8" d="m149.4 288.8c-0.1-4.4 7.4-11.4 9-13.6 6.7-9.4 7-25.4 3.1-36.3-9.5 7.1-15.8 18.3-17 30l1.9 16.6z"/>
						</g>
						<g id="&lt;Group&gt;">
							<path id="&lt;Path&gt;" class="s9" d="m155.4 301.7c5.8 0.1 8.7-2.3 12-6.4 3.3-4.1 4.6-9.6 5.2-14.9q0.6-4.5 0.8-9c-7.4 2.6-22.5 8.8-23.6 18.3l2.7 9.5c0 0 2.1 2.5 2.9 2.5z"/>
						</g>
						<g id="&lt;Group&gt;">
							<path id="&lt;Path&gt;" class="s10" d="m141.2 280.8c-0.7-3.1-5.1-6.1-7.6-6.7-11.8-3-19.4-1.7-22-0.2 2.5 9.1 12.2 15.5 14.6 17.2 4.8 3.4 12.3 4.2 17.4 3 0 0 0.4-5.6 0.4-5.9 0-0.2-2.8-7.4-2.8-7.4z"/>
						</g>
						<g id="&lt;Group&gt;">
							<path id="&lt;Path&gt;" class="s11" d="m153.1 314.1c-7.5 6.6-25.5 1.8-31.8-4.2-3-2.8-6.1-4.7-8.4-8.1 4.8-4.6 13.2-8.1 19.7-7.2 4 0.6 12.6 3.8 14 7.6 0 0 4.4 3.4 4.8 4.8 0.4 1.4 1.7 7.1 1.7 7.1z"/>
						</g>
						<g id="&lt;Group&gt;">
							<path id="&lt;Path&gt;" class="s12" d="m158.2 321.5c-13-6.3-34.3-2.5-41.9 3.7 5.6 7.6 12.9 13.3 22.2 14.9 17.1 2.9 35.1-2.9 35.7-2.5-10.5 1.8-28.2 8.4-34.5 19.7 19.8 10.6 43.1 4.4 52.3-6.5 0 0-0.4-4-0.9-4.4-0.5-0.5-32.9-24.9-32.9-24.9z"/>
						</g>
						<g id="&lt;Group&gt;">
							<path id="&lt;Path&gt;" class="s13" d="m206.1 362.8c-5.5 17.5-21.7 22.9-31.8 22.7-5.8-0.2-13.6-0.6-18.8-0.8 2.1-9.8 9-18.6 18.1-22.8 3.5-1.6 7.3-2.3 10.9-4.1 0 0 8.1-5.8 17.3-2.2 7.8 3.1 4.3 7.2 4.3 7.2z"/>
						</g>
						<g id="&lt;Group&gt;">
							<path id="&lt;Path&gt;" class="s14" d="m176.1 328.5c-0.7-1.8 1.1-5.1 2.1-7.7 1.4-3.8 2.2-7.8 2.4-11.9 0.1-1.9 0.1-3.8-0.6-5.6-0.9-2.4-2.7-4.2-4.5-6q-2.6-2.6-5.2-5.2c-6.9 4.8-9.5 14.1-7.2 22.1 0.1 0.3 5.1 7.1 5.7 8.4 0.7 1.2 7.7 6.9 7.3 5.9z"/>
						</g>
						<g id="&lt;Group&gt;">
							<path id="&lt;Path&gt;" class="s15" d="m196.9 343.9c1.1-1 3.4-5.4 3.5-6.3 0.9-4.7-0.1-8.6-2.1-12.9-2-4.2-5.1-7.9-8.6-10.9-2.4-2.1-5.1-3.9-7.1-6.5-4.9 9.1-3.5 21.5 3.4 29.1l5.4 7.4z"/>
						</g>
						<g id="&lt;Group&gt;">
							<path id="&lt;Path&gt;" class="s16" d="m213 360.8c0-3.6 1.8-6.4 3.2-9.8 3.5-8.4 0.6-18.6-5.5-25.4-2.4-2.7-5.3-5-6.8-8.2-3 3.1-3.3 7.8-3.2 12.2 0.1 8.8 1.6 17.7 7.4 24.3 0 0 0.3 5.4 0.8 5.6 0.4 0.2 4.1 1.3 4.1 1.3z"/>
						</g>
						<g id="&lt;Group&gt;">
							<path id="&lt;Path&gt;" class="s17" d="m223.9 384c1.4-2.8 3.6-5.1 5.1-7.8 3.1-5.2 4-11.6 2.9-17.6-1.1-5.9-4.1-11.5-8.2-15.9-1.3-1.4-2.8-2.8-3.5-4.6-6.1 10.4-7 23.4-0.9 33.7 0 0 0.5 7.2 0.6 7.5 0.1 0.3 4 4.7 4 4.7z"/>
						</g>
						<g id="&lt;Group&gt;">
							<path id="&lt;Path&gt;" class="s18" d="m227.6 405.4c4.4-1.7 8.6-4.1 11-8 1.8-2.9 2.3-6.4 2.4-9.7 0.2-4.8-0.5-9.6-1.9-14.2-0.3-1.3-0.8-2.5-0.8-3.8-0.1-1.4 0.3-2.8 1.3-3.6-5.6 1.7-10 6.3-12.1 11.7-2.1 5.3-1 11.2-0.8 17 0 0.7-1.4 7.1-1.4 7.1z"/>
						</g>
						<g id="&lt;Group&gt;">
							<path id="&lt;Path&gt;" class="s19" d="m218.9 387c-1.3 2.7-3 5.4-5.4 7.3-1.2 1-2.6 1.7-3.9 2.5q-3.2 1.7-6.4 3.4c-1.7 1-3.5 1.9-5.4 2.3-1.9 0.4-3.8 0.3-5.7 0-6.8-0.9-13.5-3-19.6-6 6.6-2.1 11.8-7.1 16.9-11.8 5.1-4.7 10.6-9.4 17.4-10.7 2-0.4 4.1-0.5 6 0l1 0.6 5.2 8.1z"/>
						</g>
						<g id="&lt;Group&gt;">
							<path id="&lt;Path&gt;" class="s20" d="m221.1 411.3c-4.6 3.2-10.5 3.9-16 2.9-5.5-1-10.5-3.5-15.4-6.1 2.5 0.2 5-0.7 7.2-2.1 2.1-1.3 4-3.1 6-4.7 3.6-2.7 7.5-4.8 11.7-6.3 2.2-0.8 4.9-1.2 6.6 0.4 0 0 1.3 2 1.5 3.8 0.2 1.8 0.1 9.1 0.1 9.1z"/>
						</g>
						<g id="&lt;Group&gt;">
							<path id="&lt;Path&gt;" class="s21" d="m137.1 264.8q0-0.1 0-0.2c-0.6-1.9-1.7-3.7-3-5.2-2.9-3.1-7.1-4.7-11.2-5.1-4.2-0.5-8.4 0-12.6 0.4 0.2 3 1.6 5.9 3.5 8.2 1.9 2.3 4.4 4.1 6.9 5.8 2.8 1.9 5.9 3.7 9.3 4.1 3.4 0.5 7.2-0.6 9.2-3.3z"/>
						</g>
					</g>
					<g id="&lt;Group&gt;">
						<g id="&lt;Group&gt;">
							<g id="&lt;Group&gt;">
								<path id="&lt;Path&gt;" class="s22" d="m268.7 339.9c-6.5-6.5-21-48.6-21.5-57.8-0.8-15.2 1.5-30.9 8.9-44.2 2.7-4.8 6-9.2 8.9-13.8 16.9-26.9 19.1-62.4 5.6-91.2-3.4-7.2-7.7-14.2-8.7-22.1-1-8.1 2.5-16.1 6.7-23.2l1.3 1c12 8.6 16.9 23.2 15.3 37.9-0.9 7.9-4 15.6-3.2 23.5 0.2 3.3 1.2 6.5 2.1 9.6 4.9 16.5 3.4 31.5-2.2 47.7-9.1 26.3-29.4 39.1-28.7 74.8 0.2 10.6 16.1 50.2 29.4 59.7"/>
							</g>
							<g id="&lt;Group&gt;">
								<path id="&lt;Path&gt;" class="s23" d="m279.5 169c-1.6-3.9-11-7.4-13.2-8.8-9.5-6-15.7-20.3-16.3-31.6 11.2 2.9 21 10.6 26.5 20.7l4.5 15.7z"/>
							</g>
							<g id="&lt;Group&gt;">
								<path id="&lt;Path&gt;" class="s24" d="m278.8 183c-5.2 2.2-8.6 1.1-13.1-1.3-4.6-2.5-7.7-7-10.3-11.6q-2.2-3.8-4.1-7.8c7.7-0.4 23.6-0.5 28.2 7.8l1.1 9.5c0 0-1 3.1-1.8 3.4z"/>
							</g>
							<g id="&lt;Group&gt;">
								<path id="&lt;Path&gt;" class="s25" d="m283.9 158.8c-0.5-3 2.3-7.4 4.4-8.9 9.5-7.1 16.8-8.7 19.7-8.3 1.1 9.1-5.2 18.5-6.7 20.9-3.1 4.9-9.5 8.3-14.7 9.2 0 0-2.3-4.9-2.5-5.1-0.1-0.3-0.2-7.8-0.2-7.8z"/>
							</g>
							<g id="&lt;Group&gt;">
								<path id="&lt;Path&gt;" class="s26" d="m285.5 193.3c9.3 3.1 23.7-7.9 27.2-15.7 1.6-3.6 3.7-6.5 4.5-10.4-6-2.3-14.9-2.4-20.4 0.9-3.4 2-9.9 8.1-9.8 12 0 0-2.7 4.7-2.5 6.1 0.1 1.4 1 7.1 1 7.1z"/>
							</g>
							<g id="&lt;Group&gt;">
								<path id="&lt;Path&gt;" class="s27" d="m283.7 201.9c9.4-10.6 30-15.1 39.1-12.3-2.1 9-6.6 16.8-14.4 21.7-14.4 9-32.8 10.5-33.2 11 10.2-2.3 28.6-2.9 38.6 5-14 16.9-37.4 20-49.7 13.6 0 0-1.1-3.8-0.9-4.4 0.3-0.6 20.5-34.6 20.5-34.6z"/>
							</g>
							<g id="&lt;Group&gt;">
								<path id="&lt;Path&gt;" class="s28" d="m255.8 256.9c11.5 13.8 28.2 12.7 37.2 8.7 5.1-2.3 12-5.6 16.6-7.7-5.5-8.1-15-13.4-24.7-13.8-3.8-0.2-7.5 0.6-11.4 0.3 0 0-9.5-2.2-16.5 4.5-5.9 5.7-1.2 8-1.2 8z"/>
							</g>
							<g id="&lt;Group&gt;">
								<path id="&lt;Path&gt;" class="s29" d="m270.1 214.9c0-1.9-2.9-4.3-4.7-6.2-2.7-2.9-4.9-6.3-6.6-9.9-0.8-1.7-1.5-3.4-1.6-5.3-0.1-2.4 0.9-4.8 1.9-7q1.3-3.3 2.7-6.6c8 1.7 13.9 9.1 14.7 17.2 0.1 0.3-1.9 8.3-2 9.7-0.1 1.4-4.4 9.1-4.4 8.1z"/>
							</g>
							<g id="&lt;Group&gt;">
								<path id="&lt;Path&gt;" class="s30" d="m257.1 236.5c-1.4-0.5-5.1-3.7-5.5-4.4-2.5-3.9-3.1-7.8-2.9-12.4 0.2-4.6 1.7-9 3.7-13 1.4-2.8 3.2-5.5 4-8.5 7.8 6.3 11.1 18 7.7 27.4l-2.1 8.7z"/>
							</g>
							<g id="&lt;Group&gt;">
								<path id="&lt;Path&gt;" class="s31" d="m248.9 257.7c-1.4-3.2-4.1-5.1-6.6-7.6-6.3-6.4-7.5-16.6-4.5-25 1.2-3.3 2.9-6.5 3.2-10 3.8 1.8 5.8 5.9 7.3 9.8 3.2 8 5.2 16.6 2.4 24.8 0 0 1.7 5 1.4 5.3-0.3 0.4-3.2 2.7-3.2 2.7z"/>
							</g>
							<g id="&lt;Group&gt;">
								<path id="&lt;Path&gt;" class="s32" d="m247.7 282.7c-2.4-2-5.2-3.3-7.6-5.1-4.7-3.6-7.9-9-9.1-14.8-1.3-5.8-0.6-11.9 1.5-17.5 0.7-1.7 1.5-3.5 1.4-5.4 9.4 7.1 15 18.5 13.4 30.1 0 0 2.2 6.6 2.2 7 0.1 0.3-1.8 5.7-1.8 5.7z"/>
							</g>
							<g id="&lt;Group&gt;">
								<path id="&lt;Path&gt;" class="s33" d="m252.3 303.4c-4.6 0.1-9.3-0.5-13-3.2-2.6-1.9-4.4-4.8-5.7-7.8-1.9-4.3-3.2-8.9-3.6-13.5-0.1-1.3-0.2-2.6-0.6-3.8-0.5-1.2-1.3-2.4-2.5-2.7 5.6-0.6 11.3 2 15.2 6 3.9 4.1 5.1 9.8 7.1 15.1 0.2 0.6 3.9 5.9 3.9 5.9z"/>
							</g>
							<g id="&lt;Group&gt;">
								<path id="&lt;Path&gt;" class="s34" d="m253.2 283.5c2.3 2 4.8 3.8 7.6 4.6 1.5 0.5 3 0.6 4.6 0.8q3.5 0.4 7 0.8c1.9 0.2 3.8 0.4 5.7 0 1.8-0.3 3.5-1.2 5.1-2.1 5.8-3.4 11.1-7.7 15.5-12.8-6.7 0.6-13.3-2-19.6-4.3-6.4-2.3-13.1-4.5-19.8-3.2-1.9 0.4-3.8 1.1-5.4 2.3l-0.6 0.8-1.7 9.3z"/>
							</g>
							<g id="&lt;Group&gt;">
								<path id="&lt;Path&gt;" class="s35" d="m260.4 306.2c5.3 1.3 10.9-0.3 15.5-3.3 4.5-2.9 8.2-7 11.6-11.2-2.2 1.2-4.8 1.2-7.3 0.8-2.4-0.4-4.8-1.3-7.2-1.9-4.1-1.2-8.5-1.7-12.8-1.4-2.3 0.1-5 0.7-5.9 2.8 0 0-0.4 2.3 0.1 4 0.5 1.7 3.3 8.2 3.3 8.2z"/>
							</g>
							<g id="&lt;Group&gt;">
								<path id="&lt;Path&gt;" class="s36" d="m281.6 142.8q0-0.1 0-0.2c-0.2-1.9 0.1-3.9 0.8-5.8 1.4-3.8 4.6-6.8 8.2-8.8 3.6-2 7.5-3.1 11.5-4.2 0.9 2.8 0.7 5.9-0.1 8.7-0.9 2.8-2.4 5.3-4.1 7.8-1.9 2.7-4 5.5-6.9 7.2-2.9 1.6-6.7 2.1-9.5 0.3z"/>
							</g>
						</g>
					</g>
					<g id="&lt;Group&gt;">
						<path id="&lt;Path&gt;" class="s37" d="m251.3 375c-5.5 5.4-9.8 12.3-11.7 19.8-1 3.8-0.8 7.4-1 11.3-0.2 3.9-3 6.4-6.7 8.2-3 1.5-6.6 1.8-9.6 0.5-4.6-2-6.9-7.3-7.9-12.2-1.3-6.7-2.4-14.9 3.2-18.9 8.7-6.1 2.9-14.3 12.7-24.5 3.7-3.8 14-5.3 18.5-8.2 5.4-3.6 7.1-10.8 11.7-15.5 6-6.2 16.6-6.7 23.9-2.1 2.1 1.3 4.1 3.1 6.5 3.7 4.4 1.2 8.9-1.3 13.1-3 6.3-2.5 13.5-3.2 19.9-1.1 6.5 2.1 12.1 7.3 14 13.8-18.1-6.5-37.9 0.9-55.4 8.9-11.2 5.1-22.5 10.6-31.2 19.3z"/>
					</g>
					<g id="&lt;Group&gt;">
						<path id="&lt;Path&gt;" class="s38" d="m240.4 301.5c-3.6 4.2-6.3 9.2-8.7 14.2-7.1 14.8-11.7 31.3-13.1 47.6-0.6 7.7-0.5 15.7 1.4 23.2 0.9 3.3 2.1 6.5 3.8 9.4 0.9 1.4 8 11.4 7.1 13.5-3.3 7.1-14.5 9.9-20.7 14.6-2.6 2-5.4 4-8.7 4.4-7.4 0.7-13.4-8.7-15.9-14.5-2-4.4-2.4-9.8 0-14 2.1-3.6 6.2-6 7.8-9.9 3.9-9.1-7.3-19.7-3.1-28.6 2.4-5.1 8.8-7.1 12-11.8 3.8-5.5 1.5-12.9 2.3-19.5 2-17 19.2-26.8 35.8-28.6z"/>
					</g>
					<g id="&lt;Group&gt;">
						<path id="&lt;Path&gt;" class="s39" d="m43.2 383.9c6.3-0.4 12.6 0.6 18.8 1.9 18.2 3.7 36.3 10.8 52 20.8 7.4 4.7 14.6 10.3 20 17.2 2.4 3 4.5 6.3 5.9 9.8 0.7 1.7 0.8 4 1.6 5.6 1.2 2.5 4.7 3.7 7.2 4.3 8.6 1.9 17.5-0.5 26-2.9 3.6-1 7.3-2.2 9.9-4.9 5.7-6.1 1.4-18-2.2-24.3-2.7-4.8-7.2-8.8-12.6-9.5-4.8-0.6-9.7 1.4-14.4 0.2-10.8-2.7-12.8-20-23.7-22.4-6.3-1.4-12.5 3.1-18.9 2.8-7.5-0.3-12.6-7.5-19.2-11.4-16.7-9.8-37.4-0.9-50.4 12.8z"/>
					</g>
					<g id="&lt;Group&gt;">
						<path id="&lt;Path&gt;" class="s40" d="m161.7 442.1c-6.4-6.1-16.3-5.2-25.1-4.3-10.6 1.1-20.1 4.2-30.7 3.7-10.7-0.5-24.2-5.1-32.7-11.7-16.1-12.5-13.1-26.7-13.1-26.7 2.2-0.8 6 13.8 17.3 15.8 6.6 1.1 13.9-1.3 19 3.1 1.4 1.2 2.4 2.8 3.8 3.9 3.4 2.6 8.3 1.5 12.3-0.1 5.8-2.4 11.3-5.5 17.3-7.4 6-1.8 12.8-2.1 18.2 1.2 2.4 1.4 4.4 3.5 6.8 4.9 3.3 2 7.3 2.6 10.2 5.1 2.9 2.4 3.8 7.9 0.4 9.5"/>
					</g>
					<g id="&lt;Group&gt;">
						<path id="&lt;Path&gt;" class="s41" d="m509.8 251.8c-1.8-8.6 4.1-16.7 9.4-23.7 6.4-8.5 14-15 19.1-24.4 5.1-9.3 8.2-23.3 7-33.9-2.3-20.3-16.1-25.1-16.1-25.1-1.8 1.5 8.7 12.3 4.5 23-2.4 6.3-8.2 11.2-7.2 17.9 0.3 1.8 1.2 3.4 1.4 5.2 0.5 4.3-3 7.9-6.5 10.4-5 3.8-10.5 6.8-15.2 11-4.7 4.2-8.5 9.9-8.5 16.2 0 2.8 0.8 5.6 0.7 8.4 0 3.8-1.5 7.5-1 11.3 0.6 3.8 4.8 7.4 8 5.3"/>
					</g>
					<g id="&lt;Group&gt;">
						<path id="&lt;Path&gt;" class="s42" d="m297.9 230.6c-3.7 0.3-21-0.6-25.7-1.8-0.3-0.5 0-1.1 0.3-1.6q3.2-5.4 6.3-10.8c6.1 0.5 12.5-0.1 18.5 0.4z"/>
					</g>
					<path id="&lt;Path&gt;" class="s42" d="m277.6 224.5l-38.1 15.2c0 0-5.3 0-8.8 8-0.9 2.2-9.8 55-9.8 55 0 0 8.5-2.7 18.8-2.2 10.4 0.6 14.9 3.2 14.9 3.2v26h102.5l29.5-34.8-25.3-58.3-46.3-13.5z"/>
					<path id="&lt;Path&gt;" class="s43" d="m294.8 130.5c-0.8 1-1.8 1.9-2.8 2.6q-0.3-0.3-0.8-0.2c-7.2 0.6-15.7 0.1-19.9 7.2-1.8 3.1-2.3 6.9-1.8 10.4 0.5 3.8 1.9 8.5 3.9 11.8q0.2 0.4 0.5 0.6c0.8 1.3 3 1.4 3.5-0.4 0.8-2.9-0.1-5.5-0.5-8.2 0.6-0.1 1.3-0.5 1.5-1.4 1.2-4.2 3.6-7.7 7.1-10.4q0 0 0 0c0.6-0.9 0.5-2-0.1-2.7 4.3-1.9 8.4-3.8 10.7-8.3 0.5-0.8-0.7-1.8-1.3-1z"/>
					<path id="&lt;Path&gt;" class="s43" d="m330.1 135.9c-0.6-0.3-1.3 0-1.5 0.5-1 0.1-2 0.3-3 0.6-1.3 0.4-2 2.2-0.8 3.2 6.3 5.2 5.8 16.4 4.3 23.7-0.5 2.5 3.4 3.5 3.8 1 1.1-6.1 2.6-12.3 3.3-18.6 0.6-4.9-1.8-8.2-6.1-10.4z"/>
					<path id="&lt;Path&gt;" class="s44" d="m279.8 227.3l1.1-32.7-3.1-11.2c0 0-4.6 1.1-5.8-7.5-1-6.8-0.9-7.8-0.9-7.8 0 0-0.8-5.2 5.6-5.2l6.7-19.6c0 0 6.6-5.2 25.2-5.2 18.6 0 21.1 4.1 21.1 4.1l2.5 16.2-0.6 4.3c0 0 4.1 0.4 4.1 4.5 0 4-1.5 10.4-1.5 10.4 0 0-0.6 4.1-3.5 3.2 0 0-2.4 9.7-3 13.1-0.6 3.3-1 16.4-1 16.4 0 0-4.7 5-12.8 5l4.8 14.3c0 0 2.7 21.8-14.2 21.8-16.8 0-24.7-24.1-24.7-24.1z"/>
					<path id="&lt;Path&gt;" class="s45" d="m285.8 178.6c0 0 1.8 0.4 2.2-1.5 0.5-1.9-2.9-5.6 1.4-9.6 4.4-4 1-12.5 1-12.5 0 0 13.6-6.3 26-5.6 12.4 0.7 14.7 1.2 14.7 1.2 0 0 0.1-11.3-1.1-12.7-1.1-1.4-5.1-3.1-9.6-3.4-4.4-0.2-22.9 3.1-24.3 3.8-1.4 0.7-12.4 10.4-12.4 10.4l-2 9.2z"/>
					<path id="&lt;Path&gt;" class="s44" d="m224.4 309.2c-1.2 5.6-2.6 21.6 9.7 21.6 0 0 23.3 4.4 23.3-19.4 0-2.1 0.2-4.8-0.2-6.4-4.6-16.2-31.1-5.3-31.1-5.3 0 0-1.2 7.4-1.7 9.5z"/>
					<path id="&lt;Path&gt;" class="s44" d="m512 228l-5.9-17.2 3.1-17c0 0 7.1-1.3 7.9-4.3 0.8-3 4.7-14.2 2-16.2-2.8-1.9-3.6-2.9-3.6-2.9l4.6-21.3c0 0-15.4-13.4-35.7-13.4-20.3 0-21.7 12.4-21.7 12.4l-2.4 14.6 1 5.9c0 0-3.1 2-3.1 3.6 0 1.5 4.5 15.1 4.5 15.1l0.4 16c0 0 4.5 9.5 5.3 10.6 0.8 1.2 10.3 2.2 10.3 2.2l-7.3 24.6c0 0 15.9 14.4 18.3 13.2 2.4-1.1 22.3-25.9 22.3-25.9z"/>
					<path id="&lt;Path&gt;" class="s46" d="m478.7 216.1l14.8-2.2 12.4-15.1c0 0-2.4 18.7-10.8 22.4-8.3 3.6-18.4 1.9-18.4 1.9z"/>
					<path id="&lt;Path&gt;" class="s43" d="m511.3 171.6c-0.9 1.3-2.1 6.6-2.8 10.4l-3.5-3.1-0.6-9.3-4.4-2.9 0.5-13.3c0 0-6-7.7-21.2-7.8-15.3-0.1-16.6 2.5-16.6 2.5 0 0-4.8-1.2-6.8-7.4-1.5-4.5-1-13.9 6.3-17.2 0 0 11.7 4.3 17.9 1.3 10.9-5.2 27.4-2.1 31 5.2 0.4 0.7 2.2 5.9 2.2 5.9 0 0 7-1.6 9.6 1.6 5.4 6.4 4 12.3 4 12.3l-9.5 22.3c0 0-4.4-2.9-6.1-0.5z"/>
					<path id="&lt;Path&gt;" class="s47" d="m510.1 175.1l-3.6 14.2c0 0 2.7 2.8 5.5-0.4 2.8-3.3 4-11 4-11 0 0 0.7-3.5-5.4-4.7z"/>
					<path id="&lt;Path&gt;" class="s0" d="m512 228c0 0-16.9 15.6-28.1 12.7-11.2-2.8-10.1-8.1-10.1-8.1 0 0-6.5 14.9 2.7 16.6 9.2 1.6 35.3-9.8 35.9-21.2"/>
					<path id="&lt;Path&gt;" class="s44" d="m566.6 329.4c0 0-4 15.3-3.8 16.7 0.1 1.5-5 17.5-17.2 15.9-12.1-1.7-13.4-16.4-13.4-16.4l8.6-20.1c0 0 14.4-2.3 25.8 3.9z"/>
					<path id="&lt;Path&gt;" class="s0" d="m569.7 332.7v-66.1c0 0-0.1-6-0.4-8.8-0.3-2.8-8.4-7.4-8.4-7.4l-34.3-18.1-14.7-4.4c0 0-16.8 19.3-26.4 18.9-9.6-0.4-11.5-14.2-11.5-14.2 0.3-1.3 0.5-2.3 0.5-2.3-1.4-0.5-2.9 1.8-2.9 1.8l-26.5 8.3-11.5 27.5 14 73-21.5 75.9c0 0-16 18.1 16.7 23.6 4.2 0.7 8.9 1.2 14 1.4 31.8 8.4 83.4-4.4 83.9-4.5 0.6-0.2 7.2 0.5 5.8-7.9-2.2-12.6-1-67.4-1-67.4 0 0 1.9 0.2 0 0l-4.9-36.5 5.2 0.1c8.6 0.6 23.9 7.1 23.9 7.1z"/>
					<path id="&lt;Path&gt;" class="s48" d="m569.9 332.6v-5.3q-0.2-0.2-0.3-0.4c-2.1-2.3-4.9-3.7-7.5-5.3-1.9-1.2-3.9-2.4-5-4.4-2-4-1.2-8.6-0.8-12.7 0.2-2.9 0.5-5.8 0.1-8.7-0.2-1.1-0.5-2.4-0.9-3.4-0.5-1.3-1.3-1.7-2.5-2.2-3.6-1.4-7.1-3.7-7-7.9 0-3.5 2.5-6.5 4.8-8.9 2.4-2.4 5.4-4.4 7.3-7.3 2-3-2.6-1.4-4-0.9-2.5 0.7-4.8 2-7.2 2.8-1.2 0.3-2.9 0.9-3.6-0.4-0.7-1.2 0.1-2.8 0.6-3.8 1.1-2.6 2.8-4.8 4.4-7.1q0.7-1 1.4-2.1c-3.1-1.9-6.5-3.4-10-4.9-3.9-1.6-7.9-3.2-11.8-5.1-3.2-1.6-8-3.6-9.9-6.8q-0.2-0.4-0.3-0.9c-0.7-0.7-1.5-1.4-2.4-1.6-1.9-0.3-4.1 1.2-5.6 2.1-1.9 1.1-5.1 5.1-12.7 8.3-10.6 4.3-18.8-1-20.5-2.4-2.5-2.1-4.7-4.9-6.3-7.8q-0.1 0.4-0.2 0.8c0.4 0.9 0.6 1.8 0.8 2.6 0.9 3.1 2.8 5.7 5 7.9 2.5 2.5 5.6 5.1 9.1 5.8 12.5 2.5 17.9-4.1 17.7-3.5-2.3 4.3-4.5 8.1-8.7 11-4.1 2.9-8.8 3.8-13.7 4.2-2.7 0.2-5.7 0.3-8.1 1.7q-0.2 0.1-0.4 0.2c-1.9 3.6-1.9 7.8-5.3 10.5-5.1 4.2-12.9 5-19.1 6.2-3.4 0.7-6.9 1.1-10.5 1.3l10.9 56.6-21.5 75.9c0 0-15.9 18.2 16.8 23.7 4.1 0.7 8.8 1.1 13.9 1.4 31.9 8.4 83.4-4.4 84-4.6 0.6-0.2 7.1 0.6 5.7-7.9-2.2-12.6-1-67.4-1-67.4 0 0 1.9 0.3 0 0l-4.8-36.4 5.1 0.1c8.6 0.6 24 7 24 7z"/>
					<path id="&lt;Path&gt;" class="s49" d="m448 241.9c2-1.4 4-2.5 6.2-3.5l-6.5 2-1 2.5q0.6-0.5 1.3-1z"/>
					<path id="&lt;Path&gt;" class="s43" d="m276.7 162.9c0 0 1.7-0.4 2.6 1.6 1 2.2 2.4 15.6 2.4 15.6l4.1-1.5-0.9-12.4c0 0 7.3-4.4 7-4.8-0.3-0.5-1.8-10.9-1.8-10.9l-13.5 6.1z"/>
					<path id="&lt;Path&gt;" class="s43" d="m279.5 183.2c0 0-1.5 0.4-3.1 0-0.1 0 4.3 14.9 4.3 14.9l1.3-2.2z"/>
					<path id="&lt;Path&gt;" class="s50" d="m286.5 201.9c0 0 5.2 13.4 27.4 13.4l1.9 5.7c0 0-30.1 4.5-29.3-19.1z"/>
					<path id="&lt;Path&gt;" class="s51" d="m279.9 179.7q0.1-0.1 0.2-0.3c0.9-1.8-0.3-3.1-0.9-4.9-0.8-2.8 0.1-7.2-3.5-8.1q-0.2 0-0.3-0.1c-1.2 1.1-1.1 2.6-1.1 2.6 0 0 0.3 5.9 1.8 9.2 1 1.8 2.6 1.9 3.8 1.6z"/>
					<path id="&lt;Path&gt;" class="s43" d="m331.2 162.6l-0.1-12c0 0 1.8 5.1 2 6.6 0.3 1.6-0.6 3.4-0.4 5.7z"/>
					<path id="&lt;Path&gt;" class="s42" d="m279.7 217.1c5.1 5.9 18.7 19.5 18.8 20.4 0.3 6.7 9.6 13.5 9.6 13.5 0 0-1.7 2.1-4.3 2.4-1.8 0.2-7.3-1.9-10.5-3.2-1.7 4-3.7 7.7-5.9 3.6-5.7-9.3-8.9-16.1-15.4-25.1z"/>
					<path id="&lt;Path&gt;" class="s43" d="m325.9 138.5c-7.7-1.4-15.5-1.4-23.1 0.4-3 0.6-6.7 1.2-9.2 3-2.9 2.1-4.3 6.8-5.9 9.8-0.9 1.8 1.9 3.5 2.7 1.6 1.4-2.7 2.6-7.4 5.1-9.2 2.4-1.9 6.7-2.5 9.7-3.1 6.7-1.4 13.7-1.7 20.5-1.1 0.9 0.1 1.1-1.3 0.2-1.4z"/>
					<path id="&lt;Compound Path&gt;" fill-rule="evenodd" class="s43" d="m337.5 124.3c0.1 5.2-1.1 10.4-4.4 14.6-0.7 0.9-1.9 0.5-2.4-0.4q-0.2 0.1-0.3 0.2c-6 2.6-12.9 1-19.2 0.8-3.4-0.2-6.9-0.1-10.4 0.3q-3.1 1.8-6.3 3.7c-1.8 4.6-4.2 8.8-7.3 12.7-1 1.3-2.7 0.6-3.3-0.7q-0.3 0.4-0.6 0.7c-0.6 0.7-1.4 0.8-2 0.6q-0.4 0.9-0.8 1.9c-0.9 2-3.9 0.8-3.9-1.1-0.1-5.4 0-12.6 4.8-16q0.5-0.2 0.9-0.5c-0.5-0.3-0.9-0.9-0.5-1.5q1.3-1.9 2.7-3.7-0.1-0.1 0-0.3c1.9-9.2 10.5-13.4 19.2-14.8 4.7-0.8 9.4-0.4 14.1 0.3 2.9 0.4 5.8 1 8.6 1.6 2.8 0.7 5.8 1.4 8.5 0.1 1.2-0.6 2.6 0.1 2.6 1.5zm-15.8 12.8q0 0 0 0 0 0 0 0 0 0 0 0z"/>
					<path id="&lt;Path&gt;" class="s52" d="m294.1 251.4c-0.2-0.1 4.4-14 4.4-14 0 0 0 6.1 9.6 13.6 0 0-7.1 5.2-14 0.4z"/>
					<path id="&lt;Path&gt;" class="s42" d="m326.6 245.3c0 0-0.6-6.3-0.8-9.8-0.3-4.4-3.6-7.6-3.6-7.6 0 0-6-8.2-6.3-8.5l-0.7-0.1c0 0.1 0.8 1.8 0.6 2.6-1.1 6.2-4 18.7-3.9 18.8-3.1 3.5-7.1 7.5-7.1 7.5 0 0 5.8 7.4 9.6 3.1 0-0.1 2.9-5.4 3-5.5 1.3 1.2 2.8 2.5 4.3 3.8 5.2 4.6 4.9-4.3 4.9-4.3z"/>
					<g id="&lt;Group&gt;">
						<path id="&lt;Path&gt;" class="s53" d="m276.7 232.4q-11.7 6.6-22.7 14.2c-0.4 0.3-0.9 0.7-1 1.1-0.2 0.7 0.2 1.4 0.6 2 3.6 5.6 6.5 11.6 8.5 18 0.8 2.5 1.4 5.1 1.1 7.8-0.4 2.5-1.6 4.8-2.2 7.3-0.8 4.2 0.4 8.4 0.9 12.7 0.4 3.4 0.4 6.8 0.3 10.2q0 6.7-0.1 13.4c-0.1 2.8-1.4 9.5 0 11.9 1.5 2.5 7.9 2.7 10.4 2.7 4 0.1 7.9-0.4 11.9-0.8 7-0.8 14.1-1 21.1-0.7 1.8 0.1 3.7 0.2 5.3-0.5 1.7-0.7 3-2.5 2.6-4.3-0.3-1-1.2-1.8-2-2.4-2.4-2-5-3.5-7.9-4.6-1-0.4-2.1-0.8-2.8-1.7-1.1-1.7 0.2-4 1.4-5.7 1.2-1.7 2.2-4.3 0.7-5.7-0.5-0.4-1.1-0.6-1.6-0.7-3.3-0.8-6.6 0.4-9.9 0.7-3 0.2-6-0.2-8.7-1.4-0.7-0.2-1.4-0.6-1.9-1.1-0.6-0.8-0.7-1.8-0.8-2.7-0.2-4.7 1.1-9.5 3.8-13.4 2.1-3 5.1-6 4.7-9.6-0.4-2.9-2.8-5-4.8-7-5.2-5.1-9.1-11.8-10.5-19-1.4-7.2-0.1-15 4.1-21.1"/>
					</g>
					<path id="&lt;Path&gt;" class="s43" d="m183.9 290.2q2.6 3.4 4.8 6.9c1.4 2.3 3.2 4.9 3.9 7.5 0.7 2.5 0.3 5.7 0.1 8.3q-0.2 4.7-0.9 9.3c-0.3 1.9 0.5 3.8 2.5 4.4 1.6 0.4 4-0.6 4.3-2.5 0.5-3.6 0.9-7.2 1.1-10.8 0.2-3.2 0.5-6.6-0.1-9.8-0.6-3-0.3-8.7-1.8-11.3-1.7-2.9-9.1-14.2-11.1-16.9-1.2-1.5 0.3 9.1-1.5 10.1-1.5 0.9-2.4 3.3-1.3 4.8z"/>
					<path id="&lt;Compound Path&gt;" fill-rule="evenodd" class="s43" d="m275.3 302.6q-5.4-0.2-10.8 0.2c-3.9 0.3-7.9 1-11.4-1.3-7.6-4.9-5-14.6-3.1-21.7 2.2-8.6 3.6-17.4 3.3-26.3-0.1-4.2-0.9-8.6-0.9-12.8-1.1-0.9-1.9-2.3-2.2-3.8-0.5-3-0.7-5.9-1.4-8.8-0.7-3-1.7-5.9-2.8-8.7-1.1-2.8-2.5-5.5-4.1-8.1-1.6-2.5-3.5-3.7-5.9-5.3q-0.1 0-0.2-0.1c-2 0.7-4.7 0.3-6.9-0.2-4.1-0.8-8.1-2.5-12.4-2.7-7.3-0.3-14.2 2.7-20 7-6.1 4.4-10 10.1-11.5 17.5-3 14.8-2.7 31.5 2.8 45.7 1.4 3.8-4.9 6.4-6.4 2.7-4.9-11.3-9.9-23-13.3-34.9-2.7-9.9-1.7-21 0-31.1 1.5-9.5 5.2-18.9 12.1-25.8 6.6-6.6 15.5-10.6 24.8-11.2 5-0.3 10.2 0.4 14.9 2.1q0.7 0.3 1.5 0.6c0.7-0.3 1.5-0.4 2.4-0.1 3.8 1.3 7.6 1.6 11.6 1 3.7-0.7 7.5-1.6 11.2-0.2 3.4 1.2 5.9 3.8 8.3 6.4 4.3 5.6 7 12.5 9 19.3 2.7 9 4.2 18.3 4.9 27.8 0.8 12.1 0.6 24.3 2.3 36.4 0.4 3.2 1.1 6.4 1.8 9.5 0.4 3.8 1.2 7.4 2.5 10.9 1 5.3 1.7 10.7 0 15.9q0 0-0.1 0.1zm-33.2-112.8q-0.6-0.4-1.2-0.7 0.3 0.4 0.7 0.9 0.2-0.1 0.5-0.2z"/>
					<path id="&lt;Compound Path&gt;" fill-rule="evenodd" class="s54" d="m335.9 335.8q-3.8 10.4-7.6 20.9c-5.1 14-9.9 28.2-15.3 42.1-2.6 6.7-5.9 13-8.6 19.7-2.5 6.4-3.8 18.8-4.5 25.7 0 0-146.6-0.3-169.7-0.3-1.8 0-3.6-1.7-3.5-3.5q0.2-4.6 0.4-9.2c-0.5-2.3-0.5-4.8 0-7.3q0.3-1.2 0.5-2.4 0.4-9.7 0.9-19.4c0.5-11 0.8-22.1 1.5-33.1 0.4-4.9 1.1-9.9 3.4-14.3 2.2-4.1 5.7-7.2 9.3-9.9 8.3-6.1 17.6-11.1 26.5-16.3q14-8 28.4-15.3c1.5-0.8 2.9-0.4 3.9 0.4 6-2.5 12.3-4.6 18.8-5.8 10.8-1.9 21.9-2.5 32.2-6.3q0-0.1 0.1-0.1 0.3-0.1 0.6-0.3c-0.2-0.8-0.2-1.7 0.4-2.6 0.8-1.5 3.2-2.4 4.8-1.3 5.5 4.3 13.8 3.3 20.3 3.3 8.2 0.1 16.4-0.6 24.6-0.2 6.8 0.4 13.1 2.4 19.1 5.5 3.1 1.6 6.1 3.5 9 5.4 2.3 1.5 4.9 3 6.7 5.1 4.4 5.8-0.1 13.7-2.2 19.5zm-42.9 99q0 0 0-0.1 0 0.1 0 0.1 0 0 0 0z"/>
					<g id="&lt;Group&gt;">
						<path id="&lt;Path&gt;" class="s43" d="m203.2 307.1c0.2 2.4-3.9 2.6-5.2 4.6-0.4 0.7-0.5 1.4-0.6 2.1q-0.7 4.9-1.4 9.7c-0.2 1.1-0.3 2.2-0.2 3.2 0.3 1.7 1.2 3.1 2.2 4.5 5.2 8.1 5.8 13.9 7.3 23.4 1 5.8 4.7 14.8 5.5 20.6 1.4 10.5 24.6 60.1 27.1 63.9 1 1.3 2.3 4.2 3.8 5.1h10.4c4.5-3.8 6.6-78.9 12-113.4 0.6-3.9 2-7.7 2.2-11.6 0.1-4-0.6-8-2-11.7-1.6-4.6-4.9-9.4-9.8-9.9-3.3-0.3-6.4 1.6-9.4 3.1-7.5 3.7-15.9 5.7-24.3 5.6-7.3 0-15.6-1.4-21.4 3.2"/>
					</g>
					<path id="&lt;Path&gt;" class="s44" d="m254.9 244.6c-0.1-4-0.1-7.9-1-11.8-0.9-3.7-4.8-28.9-15.3-34.4-6.8-3.6-14.8-1.4-22.1 0.2-7.2 1.5-14.9 2.4-21.8 5.2-6.3 2.5-11.7 6.7-14.4 13.1-2.8 6.6-2.9 10-3 17.1-0.1 3.6 2.6 8.3 4.1 14.4 1.4 6.1 0.5 12.8 1.8 16.9 1.8 5.5 3.9 10.2 5.1 14 3.2 7.9 6.9 16.1 9.8 19.5 5.1 5 12.3 7.8 19.4 9.4 6.8 1.6 14.1 0.9 20.1-3 5.3-3.6 9.2-8.9 12.3-14.5 1.8-3.1 5.1-15.7 5-19.7-0.1-8.2 0.2-18.2 0-26.4z"/>
					<path id="&lt;Path&gt;" class="s44" d="m255.3 301c-1.3-2.2-2.2-4.5-2.7-7 0.1-0.8-0.8-7.7-0.6-9 0.2-1.4-1.6-1.2-1.8 0.3q-0.1 0.6-0.2 1.2c-0.5-0.5-1.3-0.8-2.1-0.8-1.7 0-3.6 1.7-3.4 3.5q0.3 3.3 0.7 6.5c-1.1 0.2-2.2 1-2.5 2.3q-0.2 0.8-0.4 1.6c-1.1-1.9-3.5-2.9-5.3-0.9q-1.9 2.3-3.9 4.4-2.3 1.3-4.4 2.9-1.7 0.6-3.4 0.8-1 0.1-2 0.2 0.1-0.8 0.3-1.6c0.2-1.9-0.5-3.8-2.4-4.4-1.6-0.4-3.9 0.6-4.2 2.5q-0.2 1.3-0.4 2.6c-1-0.2-1.9-0.3-2.8 0q-0.1 0-0.2 0.1-1-2.6-1.6-5.3c-0.7-3.5-6-3.1-6.6 0-0.9-3.5-2.3-6.8-4.4-9.8-1.1-1.5-2.9-2.2-4.6-1.2q-0.4 0.2-0.6 0.4c0.3 0.6 0.6 1.3 0.8 2 0.3 0.2 0.6 0.6 0.8 1.1q0.1 0.5 0.2 1c0.3 1.4 0.3 3.1 0.5 4.5 0.1 0.4 1.8 10.7 1.8 13.3 0 3-0.9 6.4-0.3 9.3 0.6 3.5 3.9 5 6.7 6.5 2.9 1.6 5.9 3 8.9 4.4 1.2 0.6 2.7 1.2 3.6 2.4 0.9 1.2 0.3 2.3-0.2 3.7-1.3 3.2-1.3 6 0.7 9 1.9 3 3.7 5.9 5.4 9.1 3.8 6.9 6.7 14.3 8.9 21.9q0.1 0.3 0.2 0.5 0.7 2.9 2 5.5c0.5 1.1 1 2.5 2.3 2.7 1.2 0.3 2-0.7 2.4-1.8 0.7-1.6 0.7-3.9 0.9-5.7q0.3-3.2 0.6-6.5 0.1-0.4 0-0.8 0.6-7.5 0.6-15 0-7.3-0.2-14.6c-0.2-4.5-0.7-9.2-0.4-13.7 0.5-9.4 11.3-10.7 15.4-17.8 2.1-3.8-0.1-7-2.1-10.3z"/>
					<g id="&lt;Group&gt;">
						<g id="&lt;Group&gt;">
							<path id="&lt;Path&gt;" class="s43" d="m185 224.7c0 0 0-0.1 0-0.1-0.1 0-0.1 0.1 0 0.1z"/>
						</g>
					</g>
					<g id="&lt;Group&gt;">
						<g id="&lt;Group&gt;">
							<path id="&lt;Path&gt;" class="s43" d="m257.1 241.1c6.4 0 6.5-10 0-10-6.4 0-6.4 10 0 10z"/>
						</g>
					</g>
					<path id="&lt;Path&gt;" class="s43" d="m173.2 194.9c-6.4 9.1-9 20.3-7.3 31.3 0.1 1.1 2 1 2.2 0 0.9-4.2 0.5-8.3 0.8-12.5 0.4-4.4 1.4-8.7 3.1-12.8 0.5-1.2-1.6-2.1-2.1-0.9q-0.2 0.4-0.4 0.8c-0.7 1.4 1.3 2.6 2 1.2q0.2-0.4 0.4-0.8-1.1-0.5-2.2-0.9-2.3 5.6-2.9 11.7c-0.5 4.5 0 9.1-0.9 13.5q1.1 0 2.2 0c-1.5-10.3 1.1-20.9 7.1-29.5 0.8-1.2-1.2-2.4-2-1.1z"/>
					<path id="&lt;Path&gt;" class="s43" d="m173.2 230.2c0.7 0.6 1.5 0.7 2.3 0.4 1.2-0.3 2.3-0.8 3.5-1.2q-0.6-1-1.2-1.9c-0.7 0.6-1.5 1.1-2.4 1.5-1.2 0.5-0.5 2.1 0.5 2.2 1.3 0.1 2.3-0.3 3.2-1.1q-0.8-0.8-1.6-1.7-0.1 0.1-0.2 0.2c-1.1 1.1 0.5 2.7 1.6 1.7q0.1-0.1 0.2-0.2c1.1-1-0.5-2.6-1.6-1.7-0.5 0.4-1 0.5-1.6 0.4q0.3 1.1 0.6 2.2c1.1-0.4 2.1-1.1 3-1.9 0.8-0.7-0.1-2.3-1.2-1.9q-1.1 0.3-2.2 0.7-0.5 0.2-1 0.4-0.2 0.1-0.4 0.1-0.4 0 0.1 0.1c-1.1-1-2.7 0.7-1.6 1.7z"/>
					<path id="&lt;Compound Path&gt;" class="s44" d="m258.2 230.2c-2.7-1.4-5.3 0.7-7.1 2.6-1 1.1 0.7 2.8 1.7 1.7 0.4-0.5-0.2 1 0.3 0.6-0.4 1.9 0.3 1.8 0 3.7-0.1 0.7 0.3 1.2 0.8 1.4q0 1.6 0.1 3.2 0 3.4 0 6.8 0 0.4 0.3 0.7-0.1 0.2-0.1 0.4-0.2 0.2-0.2 0.6 0 0.2 0 0.5c0 0.6 0.3 1 0.8 1.1q-0.5 0.5-1.1 0.9c-0.9-1-2.7 0.1-1.9 1.3q0.3 0.4 0.5 0.7c0.2 0.4 0.8 0.8 1.3 0.6 3-1.2 5.6-2.3 6.5-5.3 1.1-3.7 1-9.3 1-13.3-0.1-2.5-0.3-6.9-2.9-8.2z"/>
					<path id="&lt;Compound Path&gt;" fill-rule="evenodd" class="s44" d="m186.1 270.7c-0.3 0.5-1.5 0.5-2.3 0.6-3.4 0.5-6.2-4.7-7.4-7.9-1.3-3.6-2.2-7.8-2.6-11.7-0.2-2.5 0-5.6 2.6-6.8 2.1-1 4.4-0.2 5.7 1.6 0.5 0 0.9 0.2 1.1 0.9q1 5.6 1.4 11.2 1.4 5 2.9 10c0.4 1.1-0.6 2.7-1.4 2.1zm-1.7-4.4q-0.1 0.4-0.2 0.9c-0.1 0.1 0.4-0.4 0.2-0.9z"/>
					<path id="&lt;Path&gt;" class="s43" d="m193.3 331.6c-3.6-12.7-2.5-26-3.4-39.1q0.3-2.8 0.2-5.7-0.2-0.5-0.4-1c-0.9-1.8-0.7-3.5-1.2-5.5-0.7-2.7-1.8-5.7-2.3-8.5q-0.2-0.1-0.5-0.2c-0.3-0.4-3.5-0.4-4.5-0.9-0.4-0.6-1-0.9-1.6-1.1-1.2-1.7-2.4-3.8-3.4-6.3-1.1-2.8-2.2-5.7-2.7-8.6-0.9-6.1 1.1-12.1-0.1-18.2-0.6-3-4.7-3.2-6.3-1.1-0.3-6.1-0.7-12.2-1.1-18.3-0.1-1.5-1.7-3.7-1.6-2.2 1.3 19 1.9 40.4 0.4 59.5-0.4 4.9-0.9 9.9-1.8 14.8-0.7 4.5-1.9 9-2.7 13.5-1.4 7.7-0.1 16.4 4.9 22.7 2.8 3.5 6.6 4.5 10.8 5.3q5.5 1 10.9 2c1 0.9 2.4 1.1 3.6 0.7q0.5 0.1 1 0.2c0.1 0.3 2.5-1.8 1.8-2z"/>
					<path id="&lt;Path&gt;" class="s43" d="m184.8 227.8c-2.1 2.2-3.2 5-3.6 8-0.2 1.7-0.2 3.4-0.2 5.1 0 0.2 0.1 1.4-0.2 1.6-0.7 0.5-1.3-1-1.5-1.5-0.7-1.4-2.7-0.2-2.1 1.1 1.2 2.3 4.7 5.2 5.8 1.2 0.6-1.8 0.2-3.8 0.4-5.7 0.2-3 0.9-5.9 3-8.2 1-1.1-0.6-2.7-1.6-1.6z"/>
					<path id="&lt;Path&gt;" class="s43" d="m179.5 231.2q0-0.1 0-0.1c-0.2-0.6-0.6-0.8-1.1-0.9q-0.1 0-0.1 0c-0.4 0-0.9 0.2-1 0.6-1.1 2.3-0.9 6.4 0.4 8.6 0.6 1 2.1 0.5 2.1-0.6 0.2-2.2 0.1-4.5-0.2-6.7-0.1-1.4-2.2-1.6-2.3 0-0.1 3.9 0.1 7.7 2.4 11 0.6 0.9 2.2 0.6 2.2-0.6 0-1.2-0.8-2-0.8-3.2 0-2.3 0.1-4.6 0.2-6.9q-1.2 0-2.4 0c0.3 2.8-0.3 5.6 0.4 8.4 0.2 1 1.6 1.1 2.1 0.3 1.3-2.1 0-4.9 1.1-7q-1.1-0.1-2.1-0.3 0.2 1.1 0.1 2.2c0 1.5 2.4 1.5 2.4 0 0-1-0.1-1.9-0.3-2.8-0.2-1-1.7-1.1-2.1-0.3-1.1 2.1 0.1 5-1.1 7q1 0.2 2.1 0.3c-0.6-2.6 0-5.2-0.2-7.8-0.1-1.5-2.3-1.6-2.4 0q-0.1 3.4-0.2 6.9c0 0.6 0 1.2 0.2 1.8 0.1 0.4 0.6 1 0.6 1.4q1.1-0.3 2.2-0.6c-2.1-2.9-2.2-6.3-2.1-9.8q-1.1 0-2.3 0c0.3 2.2 0.4 4.5 0.2 6.7q1.1-0.3 2.2-0.6c-0.6-1-0.7-2.1-0.6-3.3 0-0.8-0.2-2.2 0.2-2.9q-0.5 0.3-1 0.6 0 0 0.1 0-0.6-0.5-1.1-0.9 0 0 0 0.1c0.4 1.4 2.7 0.8 2.2-0.6z"/>
					<path id="&lt;Path&gt;" class="s43" d="m181.8 247.4c4.6-4.1 2.8-11.2 3.5-16.6 0.2-1.2-1.3-1.6-1.8-0.5-2 5.2 1.6 11.8-2.5 16.3-0.5 0.6 0.3 1.4 0.8 0.8z"/>
					<path id="&lt;Path&gt;" class="s43" d="m252.8 231c0.8 0 1.6-0.3 2.2-1 1.1-1.1-0.6-2.8-1.6-1.7q-0.1 0.1-0.1 0.1 0.1-0.5 0.1-1 0.3-0.3 0.3-0.8c0.1-1.5-0.1-2.8-0.6-4.2-0.1-0.4-0.4-0.6-0.8-0.7q-0.4-2.1-0.9-4.2c-0.1-0.6-0.6-0.9-1.2-0.9q-0.2-0.9-0.5-1.9c0.1-1.9 0.3-3.7-0.3-5.5-0.2-0.4-0.6-0.6-0.9-0.6q-0.2-1-0.1-1.9c0.3-0.3 0.5-0.7 0.4-1.2q-0.1-0.1-0.1-0.1c-0.1-0.5-0.6-0.9-1.1-0.9q-0.1 0-0.2 0c-0.4 0-0.7 0.2-1 0.5-0.3 0.1-0.6 0.4-0.7 0.8-1.2-3.4-2.9-6.6-5.5-9.2-1-1.1-2.7 0.6-1.6 1.7 5.6 5.7 6.2 13.8 7.3 21.4 0.4 2.5 1 5.3 2.3 7.7 1 3 2.8 5.5 5.6 7.4 0.8 0.5 1.7-0.7 1-1.3q-1.1-1.1-2-2.5z"/>
					<g id="&lt;Group&gt;">
						<path id="&lt;Path&gt;" class="s55" d="m199.4 299.5c2.1 4.9 10 19.5 25.1 19.3 15.5-0.3 28.2-17.9 27.5-33.8-6.8 12.8-14.3 20.8-28.2 23-13.4 2-24.4-8.5-24.4-8.5z"/>
					</g>
					<g id="&lt;Group&gt;">
						<path id="&lt;Path&gt;" class="s56" d="m179.5 247.4c1.5 0 2.8 1.4 3.3 2.8 0.3 1 3.6 16.2 1.1 15.3-5.4-1.7-6.9-9.5-7.5-12.5-0.3-2-1.2-5.5 3.1-5.6z"/>
					</g>
					<g id="&lt;Group&gt;">
						<path id="&lt;Path&gt;" class="s57" d="m237.9 387c0.8 0.2 1.5-0.3 2.3-1 3-2.9 3.9-7.7 4.3-11.7 0.4-3.9 1.3-7.9 1.6-11.8 0.2-4.3-0.4-8.5-0.9-12.7-0.5-4.1-0.9-8.1-2-12.1-0.4-1.4-1.6-4.8-1.3-7.1q-3.9 5.7-7.8 11.4c-0.8 1.1-1.5 2.1-1.8 3.4-0.3 1.3-0.1 2.6 0 4q0.6 3.7 1.1 7.5 1.4 10.1 2.8 20.2c0.5 3.3 0.9 6.7 1.7 9.9z"/>
					</g>
					<path id="&lt;Compound Path&gt;" fill-rule="evenodd" class="s58" d="m299.6 398.9c-1.1 2.8-3.4 5.3-5 7.8q-0.3 0.6-0.7 1.2c0.7 0 1.5 0.7 1.4 1.6q-0.2 1.2-0.5 2.2-3.7 15.7-5.5 31.8c-0.1 0.7-0.2 0.6-0.9 0.7h-17.1c3.5-7.2 7.9-16.4 12-23.3q0.1-0.3 0.2-0.5 0.1-0.3 0.3-0.5 3.2-5.5 6.7-11 2.5-4.1 5.2-8.2c0.7-0.9 2.3-2.7 1.7-3.9-0.5-1.1-2.5-2.2-3.4-3q-7.6-6.2-15.2-12.4c-0.5-0.5-0.4-1.2 0-1.7 4.4-4.9 8.6-10.1 12.3-15.6q2.8-4 5.2-8.2c0.8-1.3 1.9-2.8 2.3-4.3 0.6-2.2-0.4-4-1.3-5.8-6.1-11.3-13.3-21.9-21.9-31.4-0.4-0.4 0.2-1 0.6-0.6q7.2 7.6 13.4 16 3.2 4.3 6 8.9c1.7 2.7 3.5 5.6 4.7 8.6 1.2 2.9 0.4 5.2-1 7.8q-0.1 0.2-0.3 0.4 0.1 0.2 0.1 0.5-0.3 0.9-0.6 1.8c0.4 0.2 0.6 0.6 0.7 1.1q0.1 0.9 0.2 1.8 0 0.4-0.1 0.7-0.2 1.8-0.3 3.7-0.3 8.2-0.5 16.5c0 0.7-0.5 1.1-1 1.3q0 3.7-0.1 7.5 0 0.4-0.1 0.7c0 0.3-0.2 0.7-0.5 0.9q0 0.5-0.2 0.8 0.5 0.4 1 0.8c1.8 1.5 3.1 2.9 2.2 5.3zm-18.2-18.6q-0.1 0-0.1 0.1 0.1 0.1 0.2 0.2-0.1-0.2-0.1-0.3 0 0 0 0zm-6.2 60.7q-0.2 0.4-0.4 0.8 0.1 0 0.3 0.1 0-0.4 0.1-0.9z"/>
					<path id="&lt;Compound Path&gt;" class="s59" d="m236.6 443c-8.3-2.3-14.9-8-21.5-13.2-3.1-2.5-6.3-4.9-9.8-6.8-3.9-2.3-7.9-4.1-11.5-6.6q3.1-5.7 6.3-11.4c1-1.9 2.2-3.7 3.2-5.7 0.4-0.9 0.8-1.8 0.3-2.7-0.5-1.2-1.8-1.5-2.9-1.9-2.2-0.7-4.3-1.5-6.4-2.3q-5.8-2.3-11.5-5.1-2.6-1.3-5.3-2.8c-1.5-0.8-4.8-1.8-4.8-4 0-1 0.9-2.4 1.2-3.3q0.6-1.6 1.2-3.1 1.2-3.2 2.4-6.5 4.7-12.6 9.3-25.3c0.2-0.6-0.6-0.8-0.8-0.3q-5.2 12.6-10.2 25.1c-1.6 4.1-3.4 8.1-4.7 12.2-1.1 3.3 0.8 4.4 3.5 6q2.1 1.2 4.2 2.3c-0.1 0.2-0.1 0.5 0.1 0.6q1.6 1.3 3.1 2.6c-0.1 0.5 0 1.1 0.6 1.4q1.5 0.8 2.9 1.6 1.5 1.2 3 2.3c2.4 1.9 4.2 3.3 2.7 6.6-0.8 1.9-1.9 3.8-2.8 5.6-2 3.9-4.1 7.8-5.9 11.7-0.5 1.2-0.9 2.3-0.8 3.5 0.2 1.7 1.8 2.6 2.1 4.2 0.5 2.7-1.9 5.6-2.4 8.2-0.6 2.6 0.1 5.1 2.1 6.8 2.2 1.7 6.6 1.4 9 1.5 0 0 11.8 0 12.2 0h29.7c0 0 3.6-0.8 2.2-1.2z"/>
					<path id="&lt;Path&gt;" class="s43" d="m449.2 178.6c-0.7-5-2.4-9.7-6.8-12.4-3.5-2.1-8-4.1-10.3-8.8-0.3-0.5-0.3-1-0.7-1.1-1.4-3.7-7.2-5.2-10.4-6.4-8.7-3.1-18-4.4-27.2-3.8-17.7 1-37.8 8.9-47 25.1-1.3 2.3-2.4 4.7-1.9 7.5 0.6 2.6 1.9 5.2 2.8 7.7 0 1.9-0.1 3.8-0.3 5.6-0.4 4-1.6 7.9-1.7 12 0 4.2 1.4 6.9 4.3 10 2.4 2.6 5 4.8 8.3 6.1 2.4 1 4.9-1.8 4.2-4.1-1.3-3.8-2.2-7.7-3-11.7 1.2-0.7 2.1-2.3 1.3-4-0.9-2-1.2-4.3-2-6.3q-0.7-1.8-1.4-3.6-0.4-1.6-0.7-3.2-0.4-2.3-0.6-4.6c9.2-6.6 19.1-11.7 30.4-13.4 5.6-0.8 11.3-0.8 16.9-0.4 3.3 0.3 6.7 0.7 9.8 2.1 2.9 1.2 5.5 3.3 8 5.3 2.7 2.4 5.5 4.3 6.6 1.3 1.7 8.1 2.4 12.7 4.6 20.6 0 0.4 5.5 10 5.6 13.4 0.2 4.1 6.3 5.2 7.4 1 2.8-11 5.3-22.6 3.8-33.9z"/>
					<g id="&lt;Group&gt;">
						<path id="&lt;Path&gt;" class="s60" d="m377.2 289.6c-10.6 8.1-21.4 16.4-34.1 20.7-12.6 4.3-28 5.2-36 15.9-3 3.8-4.5 8.6-5.7 13.3-2.8 11.7-3.4 23.9-4.3 35.9-1.6 22.7-4.8 46.4-8.7 68.8 0 0 218.8 0 260.8 0 1.9 0 4.1-1.9 6-2.3 2-0.5 3.7-1.8 5.1-3.3 6.5-6.8 7.4-17.1 7.1-26.4-0.9-22.9-7.1-45.3-13.2-67.4q-4.2-14.9-8.3-29.7c-0.9-3.4-1.6-7.2-4.4-9.3-5.3-4.1-13.3-5.5-20.8-5.7-19.5-0.7-35.2-14.6-51.2-25.8-4.3-3-11.7-7.7-14.3-5.8-3.2 2.3-2.9 11.5-5.8 14.3-2.2 2.1-5.7 2.3-8.8 2.5-15.8 0.8-31.4 3.8-46.4 8.8-2 0.7-4.2 1.4-6.3 1-2.5-0.5-4.3-2.6-6.5-3.9-2.2-1.3-5.7-1.5-6.8 0.8"/>
					</g>
					<g id="&lt;Group&gt;">
						<path id="&lt;Path&gt;" class="s61" d="m289.1 442.2q-0.2 1-0.4 2 0 0 0.4 0 0-1 0-2z"/>
					</g>
					<g id="&lt;Group&gt;">
						<path id="&lt;Path&gt;" class="s62" d="m564.7 421.5c-0.3-6.4-2.1-13.7-6.3-18.8-3.1-3.7-8.1-4.4-12.2-6.8-4.9-2.9-6.3-7.5-5.4-13 0.2-1.3 0.5-3 0.7-4.8-0.7-0.1-1.5 0-1.9 0q-1.9 0-3.7 0.2c-2.6 0.3-5.3 0.9-7.8 1.7-4.1 1.1-8 2.9-11.9 4.8 3.9-0.4 7.9-0.1 10.9 1.5 1 0.4 0.4 1.7-0.5 1.8-2.5 0.2-5.2-0.4-7.8-0.4-2.6 0-5.3 0.3-7.8 0.8-5.4 1.1-10.4 3.7-14.3 7.7-0.2 0.2-0.5-0.1-0.4-0.3 3.3-4.9 8.1-8.1 13.7-9.8q1.4-0.5 3.1-0.8c2.1-2.2 4.6-4.1 7.3-5.7 4.7-3.2 9.8-5.6 15.1-7.5q2.2-0.7 4.4-1.3-0.4-0.4-0.8-0.8c-4.1-3-10.8-0.6-15.4-0.5-4.7 0.1-10.1-1.5-12-6.2-1.2-3-0.3-6.2 1.5-8.7 4.4-6.4 11.6-10.9 17.9-15.2 3.1-2.2 6.4-4.3 9.2-6.8 1.1-1 2.2-2 3.2-3.2 0.3-0.3-0.1 0.2 0.3-0.4q0.2-0.3 0.4-0.6 0.1-0.1 0.1-0.1c0 0 0-0.1 0.1-0.2q0 0 0-0.1c0-0.6-0.1-1.2-0.1-1.4q-0.1-0.4-0.2-0.8-0.1-0.1-0.1-0.2 0 0-0.1-0.2c0-0.1-0.1-0.2-0.2-0.3-0.1-0.1-0.2-0.3-0.3-0.3-0.1-0.1-0.3-0.2-0.4-0.3q-0.1 0-0.2 0c-0.1-0.1-0.5-0.1-0.6-0.2q-0.3 0-0.6 0-1 0-1.9 0.1c0 0-0.4 0-0.8 0.1q-0.5 0.1-1.1 0.3-1.2 0.2-2.3 0.6c-6.5 2-12.6 5.5-19.3 7.2-2.5 0.7-5.6 1.2-8-0.2-3.1-1.8-3.4-5.3-2.5-8.4-0.2-2 0.2-3.9-0.2-5.8-0.4-2.4-2.5-3.4-4.7-3.8-1.6-0.2-3.2-0.3-4.8-0.5-1.8 0.3-3.7 0.4-5.5 0.3-6.6-0.5-12.3-3.9-16.3-9-4.1-5.2-4.8-10.9-5.8-17.2-0.7-4.1-1.6-8-3.3-11.6q-2.1-2.2-4.3-4.2c-1.6-1.4-3.3-2.7-5-3.9q-0.1 0.1-0.3 0.2c-3.2 2.3-2.9 11.5-5.8 14.3-2.2 2.1-5.7 2.3-8.8 2.5-15.8 0.8-31.4 3.8-46.4 8.8-2 0.7-4.2 1.4-6.3 1-2.5-0.5-4.3-2.6-6.5-3.9-0.7-0.4-1.6-0.8-2.5-0.9-1.9 5.4-7 9.5-9.9 14.5-4.6 7.6-1.4 18.1 1.5 25.8 1.1 3 3.1 4 5.5 6 3 2.4 4.5 5.6 4.6 9.4 0 4.1-1.8 8-1.5 12 0.2 3.4 2.9 6.3 4.2 9.3 1.5 3.3 2.7 6.9 1.7 10.5-1 3.5-4.2 6.4-7.7 7.1-6.8 1.4-13.7-3.2-19-6.9-6.6-4.7-10.6-11.4-13.7-18.7-1.5-3.6-2.6-7.4-4-11.1-1.2-3.4-2.9-6.1-6.1-7.9-3.8-2.1-7.8-3.8-11.6-5.9-1.1-0.3-2.1-0.8-3.2-1.3q-1.2-0.5-2.3-1.1-2-0.3-3.9-0.5c3.1 2.5 6.4 4.7 9.5 7.4 3.8 3.5 10.7 11.1 5.5 16.2-2.4 2.5-7.2 2.3-10.5 3q-2.6 0.5-5.2 1.1-1.5 0.4-2.9 0.8-0.6 0.2-1.2 0.5-0.2 0-0.4 0.1 0 0-0.2 0.1-0.6 0.3-1.2 0.6c-0.1 0.1-0.8 0.5-0.8 0.5-0.1 0.1-0.3 0.3-0.4 0.5q0 0.2 0 0.2c0 0.5 0.3 0.7 0.8 1.4 2.9 3.9 8 5.9 9.2 11 1.4 6.3-3 12.1-5.8 17.2-3 5.4-5.1 11.6-5.7 17.8-0.7 7.3-0.2 14.8-0.8 22.1q-0.5 6.1-1.1 12.2h246.9c1.9 0 4.1-1.9 6-2.3 2-0.5 3.7-1.8 5.2-3.3 1.9-2 3.3-4.3 4.3-6.8 0.1-3.5-0.1-6.9-0.3-10.3z"/>
					</g>
					<path id="&lt;Path&gt;" class="s54" d="m455.3 262.8c-2.1-2.3-5.1-4.1-7.8-5.9-3.7-2.5-7.2 3.5-3.5 6.1q1.8 1.1 3.5 2.4c0.5 0.4 1.1 0.8 1.7 1.2q-0.3 0.4-0.5 1c-5.1 16.6-10.3 33.2-14.3 50.1-1.9 8.4-3.3 16.9-5 25.4-1.6 8.1-4.5 15.6-7.7 23.2-0.9-4.2-2.2-8.2-3.5-12.2-2.4-7.4-5.2-14.6-8.4-21.7-6.6-14.7-15.1-28.2-24.6-41.2-0.6-0.8-1.5-1.4-2.5-1.6 1.1-4.9 1.4-9.9 0.8-14.8-0.2-1.9-1.4-3.5-3.5-3.5-1.7 0-3.7 1.6-3.5 3.5 0.6 5.7 0.1 11.4-1.7 16.9-1.9 5.4-5.5 10-7.4 15.5-1.6 4.9-1.5 10.8 2 15.1 3.1 3.9 8.3 4.7 11.8 8.1 4.2 4.2 3 9.5 3.7 14.8 0.6 4.9 3.3 8.8 6.8 12.2 3.2 3 7.1 5.8 8.9 9.9 1 2.4 1.5 5.1 2 7.7q1.1 4.9 2.1 9.9 4.5 21.4 8.7 42.9c0.2 1.1 0.9 1.9 1.6 2.2 0.8 1.1 2.3 1.7 3.5 1.5 1.8-0.2 2.8-1.7 3-3.4 1.6-12.6 4.5-24.9 7.8-37.2 1.6-6.1 3.2-12.3 5.1-18.3 1.7-5.5 4.5-10 7.4-14.9 2.8-4.7 4.4-9.6 4.3-15.1 0-4.7-1.4-10.4 1.8-14.3 1.7-2.1 3.7-3.7 4.7-6.3 1.1-2.9 1.3-6.1 1.6-9.2q1.2-9.6 2.1-19.2 0.9-11 1.4-22.1c0.1-3.2-0.1-6.2-2.4-8.7z"/>
					<path id="&lt;Compound Path&gt;" fill-rule="evenodd" class="s44" d="m446.8 291.9c-1.3 4.2-5.8 11.2-7 15.4-1.4 4.6-1.9 12.9-1.9 12.9-0.6 5-5 24.5-6 29.3-1 4.7-8.1 20.8-9.1 21.8-1.6 1.9-2.6 0.8-3.2-2-0.7-3.7-7.8-18.4-9.4-22.5-2.8-6.8-7.8-15.7-12-23.1q-4.9-8.6-9.4-17.4c-7.3-16.5-7.8-25.9-7.9-26.4-0.1-2.1-0.7-4.2-1.5-6.1-1.6-4.3 5.2-6.1 6.8-1.9 1 2.6 1.5 5.2 1.7 7.9 0.8-1.2 2.2-1.7 3.4-1.6 1.3-2.1 3-3.6 5.9-3.4 2.6 0.2 4.9 0.3 7.5-0.5 2.5-0.7 4.7-1.9 6.9-3.3 9.3-6 17.2-15.1 23.4-24.2 1.2-1.9 10.1 1 11.8 2.7 0 0 2.6 9.9 3.7 19.2 1.1 8.8-1.4 15.4-3.7 23.2zm-5.5-33.1q-1.3-2.4-3-4.6c-5.7 7.8-12.5 15-20.3 20.8-4.2 3.2-9.1 5.9-14.3 6.7-1.3 0.2-2.7 0.4-4 0.4q-0.9-0.1-1.9-0.2-0.2 0-0.3 0c-0.3 0.9-0.8 2.5-1.4 4 9.7-0.9 19.1-3.2 28.1-6.8 4.1-1.7 8.2-3.6 10.4-7.6 2.3-3.9 3.3-8.3 6-11.9q0.3-0.5 0.7-0.8z"/>
					<path id="&lt;Compound Path&gt;" class="s44" d="m454.7 222c0.4-5.9 3-12.5-2.8-16.7-2.1-1.6-4.8-2.3-7.3-1.9-1.6 0.2-2.9 1.2-4.4 1.5-2 0.4-3-1.1-3.7-2.8-1.4-3.5-2-7.5-2.8-11.1-0.9-3.9-1.7-7.9-2.6-11.9-0.6-2.8-1.7-5.5-4-7.4-2.5-1.9-5.6-2.7-8.6-3.4-8.2-2-16.7-2.8-25.1-2.4q-6.3 0.3-12.5 1.5c-1.7 0.3-3.5 0.6-5.1 1.2-0.2 0-0.3 0-0.5 0.1q-0.2 0.2-0.3 0.3c-0.8 0.4-1.6 0.9-2.2 1.5-3.2 1.8-6.9 2.7-10.2 4.3-1.8 1-6.8 4.9-9.6 14-0.9 2.8-2 24.4-0.5 26.9 1.9 3.1 3.2 6.5 4.1 10.1q0 0.2 0.1 0.4c0.7 5.6 1.8 11.2 3.4 16.7 0.6 2.2 1.3 4.3 2.2 6.3 0.7 2.4 1.8 4.8 3.2 7 1.2 2.5 2.5 5 3.8 7.5q1.3 2.7 2.2 5.5c0.4 1.4 14 16.8 17.1 19.4 2.5 2 7.6 1.1 10.8 1.2 2 0.1 3.9-0.1 5.9-0.3 1.2-0.1 2.4-0.2 3.5-0.6q1.7-0.3 3.3-0.6c4.5-0.9 8.9-2.3 13.2-4q0.3-0.1 0.5-0.3c4.7-0.9 8-4.6 10.1-9.1 1.5-3.2 2.5-6.7 4.1-9.9 1.5-2.9 3.6-5.5 5.1-8.4 1.5-3.2 1.8-6.5 1.8-9.9-0.1-1.9-0.3-3.8-0.1-5.6 0.3-2.1 2.2-1.9 3.8-2.7 6.2-3.2 3.7-11 4.1-16.4z"/>
					<g id="&lt;Group&gt;">
						<g id="&lt;Group&gt;">
							<path id="&lt;Path&gt;" class="s44" d="m403.3 289.8c19.3 0 19.3-30 0-30-19.3 0-19.4 30 0 30z"/>
						</g>
					</g>
					<path id="&lt;Path&gt;" class="s43" d="m432.4 177.4c0.8 0.4 1.6 0.8 2.5 1.1 0.8 0.3 1.6 0.4 2.4 0.6 2 0.4 3.1-2.1 1.4-3.3-0.7-0.4-1.4-0.9-2.1-1.3-0.8-0.4-1.7-0.7-2.6-1.1-1-0.4-2.2 0.4-2.5 1.3-0.4 0.9-0.1 2.2 0.9 2.7z"/>
					<path id="&lt;Path&gt;" class="s43" d="m340.4 171.2c-2.1 5.1-1.6 10.5 0.5 15.5 1.8 4.2 5.6 8.2 10.5 8.2 1.6 0 2.1-2.6 0.4-2.9-8.9-1.1-11.8-12.9-9.8-20.4 0.3-1-1.2-1.4-1.6-0.4z"/>
					<path id="&lt;Path&gt;" class="s43" d="m340.9 171.1c-1.2 2.7 2.4 4.1 4.5 4.4 2.4 0.2 7.1-0.5 7.4-3.5 0.1-0.5-0.5-1-1-1-1.5 0-2.9 1.4-4.4 1.7-1.4 0.3-5.1 0.3-5.4-1.4-0.1-0.5-0.9-0.6-1.1-0.2z"/>
					<path id="&lt;Path&gt;" class="s43" d="m341.2 173.9c-1 2.6-0.7 5.3 0.8 7.6 0.5 0.9 1.6 0.6 2-0.2 0.8-2.2 0.5-4.3 0.1-6.6-0.2-1.2-2.2-0.9-2.2 0.4-0.1 3.6 0 7.2 0.9 10.7 0.4 1.4 2.5 1.1 2.5-0.3 0.1-2.5-0.3-4.9-1-7.2-0.4-1.1-2.2-1.3-2.4 0-0.6 3.4-0.5 8.6 2.9 10.6 0.7 0.5 1.6 0.1 1.8-0.7 0.6-2.2-0.1-4.1-1.1-6.1-0.7-1.3-2.6-0.3-2.3 1 0.4 2 1.2 3.7 2.4 5.3 0.9 1.2 2.9-0.3 2-1.5-1-1.4-1.6-2.8-2-4.5q-1.1 0.5-2.3 1c0.7 1.3 1.3 2.6 0.9 4.1q0.9-0.4 1.9-0.8c-2.3-1.3-2.2-5.5-1.8-7.8q-1.2 0-2.4 0c0.6 2.2 0.9 4.3 0.9 6.6q1.2-0.2 2.5-0.3c-1-3.3-1.1-6.7-1.2-10.1q-1.1 0.1-2.2 0.3c0.4 1.8 0.6 3.5 0 5.3q1-0.1 2-0.3c-1.3-1.9-1.6-3.8-1-6 0.4-1.2-1.3-1.6-1.7-0.5z"/>
					<path id="&lt;Path&gt;" class="s43" d="m355.5 163.5c-3.6 3.3-8.7 8.4-13.9 5.1-0.6-0.3-1.6-0.2-1.8 0.5-2.4 5.5-1.9 14.5 3.9 17.7 0.9 0.4 1.9-0.5 1.4-1.4-1.4-2.2-3-4.1-3.7-6.7-0.7-2.8-0.5-5.6 0.7-8.2q-0.9 0.2-1.9 0.5c6.5 4.2 13-1.3 16.4-6.6 0.4-0.7-0.5-1.4-1.1-0.9z"/>
					<path id="&lt;Path&gt;" class="s43" d="m342.7 171.6c0.8 1.4 3.6 1.5 5 1.4 1.4 0 1.6-1.8 0.3-2.2-1.3-0.5-2.7-0.7-4.1-0.7-1 0-1.5 1-1.1 1.8 0.8 1.4 2 2.3 3.6 2.7q0.2-1.3 0.3-2.6-1.9 0-3.9 0c-1.7 0-1.7 2.6 0 2.6q1.3 0.1 2.7 0.1c0.8 0 1.5 0 2.2-0.6 0.4-0.4 0.5-1.1 0.2-1.6q0-0.1-0.1-0.1c-0.5-1.3-2.4-0.6-2.4 0.6q0 0.1 0 0.2 0.3-0.6 0.7-1.2c-0.2 0.1-1.3 0-1.5 0q-0.9 0-1.8 0 0 1.3 0 2.6 2 0 3.9 0c1.4 0 1.8-2.2 0.4-2.5-1-0.2-1.7-0.6-2.2-1.4q-0.5 0.9-1 1.8c1.2 0 2.3 0.2 3.5 0.5q0-1.1 0-2.2-1.1 0.1-2.3 0c-0.7-0.1-1.3-0.4-2-0.2-0.4 0.2-0.6 0.6-0.4 1z"/>
					<path id="&lt;Compound Path&gt;" class="s44" d="m390.3 443q0 0 0-0.1c0.1-5.1-5.2-8.2-9-10.9-5.3-3.8-11.3-8.9-17.9-10.4-2.3-0.5-4.8-0.4-6.7 1.2-2 1.6-2.3 4-2.3 6.4 0 1.5 0.3 3.2-0.2 4.7-0.5 1.7-2.1 2.5-3.5 3.5-2 1.4-3.7 3-3.8 5.6 0 0.7 0.5 1.2 1.2 1.2h42.1c0-0.1 0-0.3 0.1-0.4q0.1-0.4 0-0.8z"/>
					<path id="&lt;Path&gt;" class="s44" d="m544 428.5c0.3-1.8-0.2-3.7-1.3-5.2-1-1.3-2.3-2.1-3.8-2.5-0.8-0.3-1.7-0.4-2.6-0.7-1.7-0.5-2.3-1.6-3.2-2.9-2.9-4-8-2.8-12.2-2.3q-7.2 0.8-14.3 2.1c0.9-2.9-1.6-6.3-5.2-5.4-2.9 0.7-5 3.3-7.5 4.8-2.6 1.5-5.8 1.5-8.3 3.4-0.6 0.5-1.1 1-1.5 1.7-1.1 1.2-2 2.5-3.4 3.5q-0.5 0.3-0.9 0.5 0 0.1 0 0.1c-3 1.2-5.9 2.6-8.7 4.1-2.5 1.5-4 2.9-5.3 5.5-1.6 3-2.9 6-4.2 9.2 0 0 27.5-0.4 32.9-0.3 5.3 0.1 43.6 0.1 43.6 0.1 1.2-0.5 2.8-1.8 3.4-3 0.9-2-0.2-4.2 0.1-6.2 0.2-2 2.1-4.4 2.4-6.5z"/>
					<path id="&lt;Path&gt;" class="s63" d="m387.6 284.9c0.9 0.9 9.8 9.1 9.8 9.1 0 0 4.5 5.6 18.7 1.4 11.7-3.5 21.7-11.5 25.1-20.1 3.3-8.6 4.2-25.3 4.2-25.3 0 0-7.7 24.6-11.2 28.3-3.6 3.7-19.7 6.8-19.7 6.8l-18.7 3z"/>
					<g id="&lt;Group&gt;">
						<path id="&lt;Path&gt;" class="s64" d="m445.8 293c-2.8 9.8-10.9 17.8-20.7 20.7-2.6 0.7-5.3 1.1-7.5 2.7-2.2 1.5-3.6 4.7-2.1 7 0.6 0.9 1.6 1.5 2.5 2.2 3.7 3 5.7 8.1 4.8 12.8-0.5 2.4-1.6 4.7-2.6 7-3.3 8.4-2.9 19.7-0.2 28.4 2.5-1.3 4.9-5.9 6-8.5 1.6-4 2.9-7.2 4.8-11.1 1.9-4 2.8-10.4 3.4-14.8 0.9-7.5 0.5-13.6 2-20.9 1.5-7.3 4-14.6 8.5-20.6"/>
					</g>
					<g id="&lt;Group&gt;">
						<path id="&lt;Path&gt;" class="s65" d="m378.8 323.1c-2-3.4-0.4-7.4-2-10.9-1.2-2.6-4.2-1.4-5.1 0.8-1.1 3.1 0.7 5.9 2.6 8.1 2.1 2.4 4.8 5.4 5.9 8.6q0.9 0.5 1.6 1.3c0-2.6-1.3-5.3-2.9-7.7q0-0.1-0.1-0.2z"/>
						<path id="&lt;Path&gt;" class="s66" d="m447.4 321.4c0.4-1.4 1-2.8 1.2-4.3 0.6-2.9-0.6-8.7-4.7-8.4-4.3 0.4-2.7 7.5-1.8 9.9 0.9 2.5 1.9 4.8 2.6 7.3 0.5 1.9 0.7 3.9 1.6 5.6q0.3-0.7 0.7-1.3 0.2-0.6 0.6-1.2-0.4-1.7-0.8-3.5 0-0.3 0-0.6c0-1.2 0.3-2.2 0.6-3.3q0-0.1 0-0.2z"/>
						<path id="&lt;Compound Path&gt;" fill-rule="evenodd" class="s67" d="m442.2 302.6c-6.2 15.9-5 33.6-9.8 49.9-1.1 3.8-2.4 7.5-4.2 11-1.8 3.5-4.5 6.5-6.1 10-1.1 2.4-0.9 5.1-0.9 7.7q0 3.6 0.2 7.2 0.2 5.2 0.5 10.4c0.6 2 0.5 4.3-0.3 6.5-0.6 1.6-1.5 2.9-2.4 4.4-1.5 2.6-1.4 5.1-1 8q1 6.8 2 13.5-0.6 0.2-1.2 0.4-0.1 0.1-0.3 0.1 0 0 0-0.1-0.2 0.1-0.5 0.1c-2 0.2-3.3-1.2-4-3q-0.3-0.4-0.6-0.8c-0.5-0.9-0.8-2.3-0.8-3.5-0.4-1.5-0.7-3.1-0.9-4.6-0.6-2.8-0.9-5.7-1-8.6-0.2-3.2 0.3-6.4-0.4-9.6-0.7-2.9-2-5.7-2.4-8.7-0.4-3-0.4-5.9-0.5-8.9-0.2-5.2-1.1-10.6-5.2-14.1q-0.2-0.1-0.2-0.3c-1.6-1.2-3.2-2.4-4.7-3.6-6.1-4.9-9.7-10.6-12.1-18.1l-0.3-1.5c-0.2-0.5 1.2-0.2 1.4 0.3 1.7 3.9 4.6 8.6 7.3 11.8 2.8 3.3 4.3 5.1 7.9 8.1 2.9 2.4 5.7 4.8 7.9 7.9 2.2 3.2 3.5 6.8 4.6 10.4q0.4 1.2 0.8 2.3c0.1-3.4 0.6-7-0.1-10-0.9-4.1-3-7.9-6-10.8-2.4-2.4-5.3-4.4-7.8-6.7-2.3-2.1-4.3-4.6-5.5-7.6-1.5-3.8-1.4-7.9-0.9-12 0.9-7.2 3.4-16.1-1.8-22.4-0.5-0.5 0.2-1.2 0.7-0.7 1.7 1.5 2.8 3.3 3.5 5.3q0.6 1.2 1.3 2.3c0.5 0.1 1 0.5 1.1 1.2q0 0.3 0.1 0.7c1.5 2.4 3 4.7 4.5 7.1 2.7 4.4 5.5 8.9 7.6 13.7 2.1 4.9 3.4 10.2 5.4 15.2 1.3 3.2 2.5 6.6 3.3 10.1q0.7-1.6 1.8-3.2c1.9-2.6 3.6-5.3 5-8.2 2.9-6.2 4.6-12.8 5.8-19.4 2.4-13.2 2.2-27.4 8.4-39.6 0.2-0.5 1-0.1 0.8 0.4zm-32.5 75.4q-0.2-0.4-0.5-0.8 0.1 0.1 0.1 0.2 0.2 0.3 0.4 0.6zm1-22.8q0.3 0.7 0.5 1.4-0.3-0.9-0.6-1.8 0 0.2 0.1 0.4z"/>
					</g>
					<g id="&lt;Group&gt;">
						<path id="&lt;Path&gt;" class="s68" d="m184.7 231.3c1.6-4.9 2.4-7.3 5.5-11.4 3.1-4.1 7.4-7 11.7-9.7 9.4-6.1 19.2-12.2 30.3-13.8 3.2-0.5 6.5-0.6 9.4 0.8 0 0 1.2 1.8 1.6 6.3 0.3 2.3 0.9 5.3-0.6 6.9-2.4 2.6-4.9 5.1-7.7 7.2-2.2 1.7-4.6 3.1-7 4.3-13.7 7.3-27 13.4-42.5 13.3z"/>
					</g>
					<g id="&lt;Group&gt;">
						<path id="&lt;Path&gt;" class="s43" d="m249.2 185.8c-0.1-1.4-1.6-2.7-2.6-3.6-1.1-1-2.5-1.7-3.8-0.5q-0.1 0-0.2 0.1c-0.6 0.3-1 1.2-0.3 1.9q0.5 0.6 1.2 1.2c-0.5 0.9-0.8 2-0.8 3.1q-0.2 0.2-0.4 0.5c-2.8-1.1-4 3.6-1.1 3.5 1-0.1 1.8-0.9 2.5-1.7 1.7 1.2 3.9-0.9 4-2.8q0.2 0 0.5-0.1c0.7-0.3 1.1-0.9 1-1.6z"/>
						<path id="&lt;Path&gt;" class="s43" d="m167.5 209.3c1.6-7.1 4.5-14.1 9.3-19.6 2.3-2.7 5.1-4.9 8.1-6.8q0.2-0.1 0.4-0.2 4.3-2.9 9.1-5 0 0 0 0c-0.9 1.1 0.2 2.9 1.6 2.1 3-1.8 5.6-3.3 9.2-3.5 3.4-0.2 6.9-0.1 10.4 0 3.4 0 6.9 0 10.2 0.8 2.4 0.6 4.7 1.5 7 2.3q0.3 0.4 0.6 0.8c0.5 0.8 1.5 0.6 2 0.1 0.6-0.1 0.8-1 0.2-1.4q-0.3-0.2-0.6-0.5c-5.7-7.2-15.6-8-24.2-7.3-4.9 0.5-9.7 1.6-14.4 3.3q-0.1 0-0.4 0c-4 1.3-7.7 3.6-11.3 5.8-3.6 2.2-6.9 4.7-9.6 7.8-5 5.8-8.2 13.2-9.9 20.6-3 13.4-0.5 27.4 6.6 39q0 0 0-0.1 0.3-0.4 0.7-0.6 0.2-0.6 0.3-1.2 0.1-0.3 0.2-0.5c-6.2-10.8-8.3-23.7-5.5-35.9z"/>
						<path id="&lt;Path&gt;" class="s43" d="m240 194.9c0.1-0.8-0.5-1.3-1.1-1.4q0.2-0.6 0.4-1.2c0.2-0.6-0.2-1.3-0.8-1.5-1.5-0.4-2.4 0.6-3.1 1.8-0.5-0.8-1.6-1.1-2.3-0.1-0.8 1.1-1.5 2.3-2.2 3.5q-0.2-0.2-0.5-0.3c0.2-0.5 0-0.9-0.3-1.2q0.2-0.4 0.5-0.7c0.7-1.2-1-2.4-1.9-1.5q-0.7 0.8-1.4 1.6c0.2-1.3-1.8-2.2-2.6-0.9-0.9 1.5-2 2.8-3.2 4-0.2-0.6-0.9-0.9-1.6-0.6q-1.4 0.7-2.8 1.5c0-0.8-0.8-1.6-1.7-1q-2 1.4-4.1 2.8 0.8-0.8 1.7-1.5c1-0.9-0.3-2.4-1.5-1.8-2.7 1.3-5.3 2.8-7.9 4.4 0.3-0.9-0.8-2.1-1.7-1.4q-1.1 0.8-2.2 1.7 0.3-0.4 0.5-0.8 0.4-0.4 0.8-0.7c0.4-0.5 0.5-1 0.2-1.3q0.1-0.3 0.2-0.5c0.5-0.9-0.5-2.3-1.6-1.6-5 3.4-9.5 7.6-13.7 11.9-1.3 0.2-2.5 2-3.2 2.7-2.9 3.2-5.4 6.6-7.5 10.3-0.6 1.1 1 2.5 1.8 1.4q0.2-0.1 0.3-0.3c-0.1 0.3 0 0.7 0.2 1q-0.1 0.2-0.3 0.4-0.4 0-0.8 0c-1.6-0.1-1.8 1.9-0.7 2.6q-0.4 0.8-0.7 1.6-1 0-2.1-0.1c-1.5 0-1.5 2.3 0 2.4q0.4 0 0.7 0c-0.4 0.6-0.2 1.4 0.4 1.7 0.1 0.4 0.4 0.7 0.9 0.7q1.7 0.2 3.3 0.1c4.9 0.7 9.9-1.2 14.5-3.1q5.7-2.4 11-5.5 1.3-0.4 2.5-0.9 1.7-0.6 3.4-1.3c-2.2 1.3-4.5 2.5-6.8 3.9-4.8 2.8-9.5 5.7-14.9 7.1-0.7 0.2-0.6 1.3 0.2 1.2 5.1-0.6 12.5-3.2 17.2-5.4 20.3-9.7 33.7-22.2 37.3-29.1 0.3-0.8-2.2-4.4-2.8-4.6z"/>
					</g>
					<path id="&lt;Path&gt;" class="s69" d="m441.4 213.3l1.4 18.1c0 0 5.6 1.3 6.1-1.5 0.5-2.8-0.9-3.7 0.1-6.8 1.1-3.2 4.6-7 1.4-11.4-3.1-4.3-8.8-4.4-9 1.6z"/>
					<path id="&lt;Path&gt;" class="s70" d="m356.6 188.2c0 0-1.4 7.5-1.5 10.7-0.4 7.3 33.2-9.7 53.6-3.2 20.3 6.6 16.6 22.3 31.2 24.2 6.3 0.8-23.8-44.8-23.8-44.8l-54.7 10.5z"/>
					<path id="&lt;Compound Path&gt;" fill-rule="evenodd" class="s43" d="m445.6 200.7c0.3 0.5 0.7 2.7-0.1 2.6-1.4-0.3-4.6 2.2-4.4 6.3 0.2 3.2 0.2 6.6 0 9.8q0 0.2-0.1 0.3c-0.1 0.2-0.3 0.3-0.5 0.4-0.3 0.1-0.7 0-0.9-0.3-2.3-3.7-4.1-7.6-5.6-11.7-1.3-0.4-2.7-0.9-3.8-1.8-1.7-1.3-2.2-3.5-2.8-5.5-1.3-4.9-3-9.6-4.5-14.4-1.6-2.3-5-4.8-7.7-6.4-2.8-1.7-5.1-1.8-6.9-1-15.2 6.8-45.3-0.4-56 14.9-0.2 0.3-0.6 0.3-0.9 0.3-0.6 2.4-4 3-4.7 0.3-0.8-2.9-1.6-6-2.5-8.9-0.9-2.7-2.3-5.4-1.5-8.3 1.3-4.6 7.5-7.5 11.4-9.5 9.7-4.7 20.3-6.6 30.9-7.9 2-0.2 3.6 1.7 3.9 3.5q0 0.3 0 0.6c5.5-1.2 11.3-1.1 16.9-1 1.4 0 2.5 0.6 3.1 1.4q0.6 0 1.2 0c1.3-1.4 3.4-2.2 5.4-1.2q1.9 0.9 3.8 1.8c0.9 0.5 1.5 1.2 1.8 2 1.4-0.9 3.3-1 4.9 0.5q0.7 0.6 1.3 1.2 0.6 0.7 1.3 1.3c0.9-0.8 2.5 0.4 2.3 1.7q0 0.2-0.1 0.4 1.1 1.1 2.1 2.1c0.8 0.7 1.1 1.5 1.2 2.3 0.3 0.3 0.4 0.7 0.4 1.1q0 0.2 0 0.3-0.1 0.9-0.6 1.4 0 1.6 0 3.3 0.8 0.4 1.4 1.3c1.4 2.1 2.9 5 3.2 7.8q0.5 0.8 1.2 1.6c0.9 1.1 1 2.6 0.6 3.8q0 0 0 0c1.4-1.2 2.5-2.2 4.4-2.1 1.3 0 2.4 1 2.4 2.3 0 1.4-0.7 2.5-1.5 3.4zm-92.2-24c-1.2 0.7-3.6 1.8-3.7 3 0 0.6 0.2 1.3 0.5 2q1.5-2.6 3.2-5z"/>
					<path id="&lt;Path&gt;" class="s4" d="m-255.6 236.7c0 0 15.4 103 62 132.2 60.3 37.8 79.2-14.6 183 71.1h-245z"/>
				</g>
				<g id="&lt;Group&gt;" clip-path="url(#cp1)">
				</g>
			</g>
		</g>
	</g>
	<g id="DESIGNED BY FREEPIK">
		<g id="&lt;Group&gt;">
			<g id="&lt;Group&gt;">
				<g id="&lt;Group&gt;">
					<g id="&lt;Group&gt;">
						<path id="&lt;Path&gt;" class="s71" d="m174.2 614.9q-1.3 1.4-2.2 2.9l-0.9-0.4c-0.2-0.6-0.7-1.1-1.4-1-0.6 0.1-1.1 0.7-1 1.4 0.1 0.6 0.7 1.1 1.3 1q0.2 0 0.4-0.1l0.9 0.5q-0.8 1.7-1.1 3.5l1.5 0.2c0.5-2.6 1.7-5 3.6-6.9z"/>
						<path id="&lt;Path&gt;" class="s71" d="m185.2 610.3q-0.5 0-1 0.1l-0.2-1.3c0.4-0.3 0.6-0.8 0.5-1.3 0-0.8-0.8-1.3-1.5-1.2-0.8 0.1-1.4 0.8-1.3 1.6 0.1 0.5 0.4 0.9 0.8 1.1l0.2 1.2q-2.2 0.4-4.2 1.3l0.7 1.4q2.8-1.4 6-1.4 1.5 0 2.9 0.4l0.4-1.5q-1.7-0.4-3.3-0.4z"/>
						<path id="&lt;Path&gt;" class="s71" d="m198.4 615.4c0.7-0.1 1.1-0.7 1-1.3 0-0.7-0.6-1.2-1.3-1.1-0.6 0.1-1.1 0.6-1.1 1.2l-0.8 0.8q-1.3-1.3-2.8-2.3l-0.8 1.3c2.2 1.4 4 3.4 5.1 5.8l1.4-0.6q-0.8-1.7-1.9-3.1l0.8-0.7q0.2 0 0.4 0z"/>
						<path id="&lt;Path&gt;" class="s71" d="m184.1 630.7q-1.2 0.1-2.3 0.1c-1.8 0-3.5-0.1-5-0.3-0.8-0.2-1.7-0.4-2.5-0.6 2.1 3.7 6.1 6.2 10.8 6.2 5.7 0 10.5-3.8 11.9-9q-2.1 1.4-5 2.3c-2.3 0.7-5.1 1.2-7.9 1.3z"/>
						<path id="&lt;Compound Path&gt;" fill-rule="evenodd" class="s71" d="m197.2 623.8q0.1 0.5 0.1 1.1c-2.7 2.4-7.5 4-13.3 4.3-5.3 0.3-9.4-0.5-10.7-1.4q-0.3-1.3-0.3-2.6c0-6.5 5.5-11.8 12.2-11.8 6.1 0 11.3 4.4 12 10.4zm-12.6-1.1c0-2.1-1.7-3.7-3.7-3.7-2.1 0-3.7 1.6-3.7 3.7 0 2 1.6 3.7 3.7 3.7 2 0 3.7-1.7 3.7-3.7zm8.5-0.8c0-1.5-1.3-2.8-2.8-2.8-1.5 0-2.7 1.3-2.7 2.8 0 1.5 1.2 2.7 2.7 2.7 1.5 0 2.8-1.2 2.8-2.7z"/>
					</g>
					<path id="&lt;Compound Path&gt;" class="s71" d="m217.2 617.1c-0.6-0.2-1.6-0.6-2.8-0.5-1.1 0.2-1.7 0.7-1.7 2v1.8h4.5v3.4h-4.5v10.9h-3.8v-10.9h-2.7v-3.4h2.7v-1.8c0-3.4 1.8-5.6 5.1-5.6 1.3 0 2.3 0.3 3.2 0.6z"/>
					<path id="&lt;Compound Path&gt;" class="s71" d="m226.6 623.8q-0.5-0.1-1.1-0.1c-1.7 0-3 1.1-3 3.2v7.8h-3.8v-14.3h3.7v1.5c0.9-1.3 2.3-1.9 4-1.9 0.9 0 1.7 0.2 2.2 0.7z"/>
					<path id="&lt;Compound Path&gt;" fill-rule="evenodd" class="s71" d="m241.9 627.5c0 0.5 0 1 0 1.3h-10.2c0.4 2.1 1.9 3 3.7 3 1.2 0 2.6-0.5 3.6-1.4l2.3 2.5c-1.7 1.5-3.7 2.2-6.1 2.2-4.4 0-7.5-3-7.5-7.5 0-4.5 3-7.6 7.3-7.6 4.1 0 6.9 3 6.9 7.5zm-10.2-1.3h6.4c-0.4-1.9-1.5-2.9-3.2-2.9-1.8 0-2.9 1.1-3.2 2.9z"/>
					<path id="&lt;Compound Path&gt;" fill-rule="evenodd" class="s71" d="m257.2 627.5c0 0.5 0 1 0 1.3h-10.2c0.4 2.1 1.9 3 3.7 3 1.2 0 2.6-0.5 3.6-1.4l2.3 2.5c-1.7 1.5-3.7 2.2-6.1 2.2-4.4 0-7.5-3-7.5-7.5 0-4.5 3-7.6 7.3-7.6 4.1 0 6.9 3 6.9 7.5zm-10.2-1.3h6.4c-0.4-1.9-1.5-2.9-3.2-2.9-1.8 0-2.9 1.1-3.2 2.9z"/>
					<path id="&lt;Compound Path&gt;" fill-rule="evenodd" class="s71" d="m273.9 627.5c0 4.3-3 7.6-6.9 7.6-1.9 0-3.3-0.8-4.2-1.9v7.4h-3.9v-20.2h3.8v1.5c0.9-1.1 2.3-1.9 4.3-1.9 3.9 0 6.9 3.2 6.9 7.5zm-11.3 0c0 2.3 1.5 4 3.7 4 2.2 0 3.7-1.8 3.7-4 0-2.2-1.5-3.9-3.7-3.9-2.2 0-3.7 1.7-3.7 3.9z"/>
					<path id="&lt;Compound Path&gt;" class="s71" d="m280.1 615.7c0 1.4-1 2.4-2.4 2.4-1.4 0-2.5-1-2.5-2.4 0-1.4 1.1-2.5 2.5-2.5 1.4 0 2.4 1.1 2.4 2.5zm-0.5 19h-3.8v-14.3h3.8z"/>
					<path id="&lt;Compound Path&gt;" class="s71" d="m286.1 625.5l5.4-5.1h4.7l-7 6.7 7 7.6h-4.7l-5.4-5.8v5.8h-3.9v-21.3h3.9z"/>
				</g>
				<g id="&lt;Group&gt;">
					<path id="&lt;Compound Path&gt;" fill-rule="evenodd" class="s71" d="m22.8 634.6v-2.1c-1 1.4-2.8 2.4-4.8 2.4-3.6 0-6.2-2.8-6.2-7.4 0-4.5 2.5-7.4 6.2-7.4 2 0 3.7 0.9 4.8 2.5v-7.6h2.2v19.6zm0-3.9v-6.4c-0.8-1.2-2.5-2.3-4.2-2.3-2.9 0-4.6 2.4-4.6 5.5 0 3.2 1.7 5.5 4.6 5.5 1.7 0 3.4-1 4.2-2.3z"/>
					<path id="&lt;Compound Path&gt;" fill-rule="evenodd" class="s71" d="m27.9 627.5c0-4.1 2.9-7.4 6.9-7.4 4.3 0 6.8 3.3 6.8 7.6v0.5h-11.4c0.2 2.7 2 4.9 5.1 4.9 1.6 0 3.2-0.6 4.3-1.8l1.1 1.5c-1.4 1.4-3.3 2.1-5.6 2.1-4.2 0-7.2-3-7.2-7.4zm6.9-5.6c-3 0-4.5 2.5-4.6 4.7h9.3c-0.1-2.1-1.5-4.7-4.7-4.7z"/>
					<path id="&lt;Compound Path&gt;" class="s71" d="m43.2 632.7l1.2-1.6c0.9 1.1 2.7 2 4.6 2 2.2 0 3.4-1 3.4-2.4 0-3.4-8.8-1.3-8.8-6.6 0-2.1 1.9-4 5.3-4 2.4 0 4.1 0.9 5.2 2l-1 1.6c-0.9-1.1-2.4-1.8-4.2-1.8-2 0-3.2 0.9-3.2 2.2 0 3.1 8.8 1 8.8 6.6 0 2.3-1.9 4.2-5.6 4.2-2.3 0-4.3-0.7-5.7-2.2z"/>
					<path id="&lt;Compound Path&gt;" class="s71" d="m57 616.9c0-0.8 0.6-1.5 1.4-1.5 0.8 0 1.5 0.7 1.5 1.5 0 0.9-0.7 1.5-1.5 1.5-0.8 0-1.4-0.6-1.4-1.5zm0.3 17.7v-14.2h2.2v14.2z"/>
					<path id="&lt;Compound Path&gt;" fill-rule="evenodd" class="s71" d="m63.2 638.2l1.1-1.6c1.1 1.4 2.6 1.9 4.6 1.9 2.3 0 4.5-1.1 4.5-4.2v-2.1c-1 1.5-2.7 2.6-4.7 2.6-3.7 0-6.3-2.8-6.3-7.4 0-4.5 2.6-7.3 6.3-7.3 1.9 0 3.6 0.9 4.7 2.5v-2.2h2.2v13.8c0 4.7-3.3 6.1-6.7 6.1-2.4 0-4.1-0.4-5.7-2.1zm10.2-7.7v-6.2c-0.7-1.2-2.4-2.3-4.2-2.3-2.8 0-4.5 2.3-4.5 5.4 0 3.1 1.7 5.4 4.5 5.4 1.8 0 3.5-1.1 4.2-2.3z"/>
					<path id="&lt;Compound Path&gt;" class="s71" d="m88.8 634.6v-9.3c0-2.5-1.2-3.3-3.1-3.3-1.8 0-3.4 1.1-4.2 2.2v10.4h-2.2v-14.2h2.2v2.1c1-1.2 2.9-2.4 5-2.4 3 0 4.5 1.5 4.5 4.5v10z"/>
					<path id="&lt;Compound Path&gt;" fill-rule="evenodd" class="s71" d="m93.9 627.5c0-4.1 2.9-7.4 6.9-7.4 4.3 0 6.8 3.3 6.8 7.6v0.5h-11.4c0.2 2.7 2 4.9 5.1 4.9 1.6 0 3.2-0.6 4.3-1.8l1.1 1.5c-1.4 1.4-3.3 2.1-5.6 2.1-4.2 0-7.2-3-7.2-7.4zm6.9-5.6c-3 0-4.5 2.5-4.6 4.7h9.3c-0.1-2.1-1.5-4.7-4.7-4.7z"/>
					<path id="&lt;Compound Path&gt;" fill-rule="evenodd" class="s71" d="m120.7 634.6v-2.1c-1.1 1.4-2.8 2.4-4.8 2.4-3.7 0-6.3-2.8-6.3-7.4 0-4.5 2.6-7.4 6.3-7.4 1.9 0 3.7 0.9 4.8 2.5v-7.6h2.2v19.6zm0-3.9v-6.4c-0.8-1.2-2.5-2.3-4.3-2.3-2.8 0-4.5 2.4-4.5 5.5 0 3.2 1.7 5.5 4.5 5.5 1.8 0 3.5-1 4.3-2.3z"/>
					<path id="&lt;Compound Path&gt;" fill-rule="evenodd" class="s71" d="m133.4 634.6v-19.6h2.2v7.6c1.1-1.6 2.8-2.5 4.8-2.5 3.6 0 6.3 2.9 6.3 7.4 0 4.6-2.7 7.4-6.3 7.4-2 0-3.8-1-4.8-2.4v2.1zm6.4-1.6c2.9 0 4.6-2.3 4.6-5.5 0-3.1-1.7-5.5-4.6-5.5-1.7 0-3.5 1.1-4.2 2.3v6.4c0.7 1.3 2.5 2.3 4.2 2.3z"/>
					<path id="&lt;Compound Path&gt;" class="s71" d="m149.1 638.1c0.3 0.2 0.8 0.3 1.2 0.3 0.9 0 1.6-0.4 2.1-1.5l0.9-2.2-5.9-14.3h2.4l4.7 11.6 4.7-11.6h2.4l-7.1 17c-0.9 2.1-2.3 2.9-4.2 2.9-0.5 0-1.2-0.1-1.6-0.2z"/>
				</g>
			</g>
		</g>
	</g>
</svg>